<?xml version="1.0" encoding="utf-8" standalone="no"?>
<!DOCTYPE svg PUBLIC "-//W3C//DTD SVG 1.1//EN"
  "http://www.w3.org/Graphics/SVG/1.1/DTD/svg11.dtd">
<svg xmlns:xlink="http://www.w3.org/1999/xlink" width="1082.839141pt" height="1444.4pt" viewBox="0 0 1082.839141 1444.4" xmlns="http://www.w3.org/2000/svg" version="1.1">
 <metadata>
  <rdf:RDF xmlns:dc="http://purl.org/dc/elements/1.1/" xmlns:cc="http://creativecommons.org/ns#" xmlns:rdf="http://www.w3.org/1999/02/22-rdf-syntax-ns#">
   <cc:Work>
    <dc:type rdf:resource="http://purl.org/dc/dcmitype/StillImage"/>
    <dc:date>2026-03-25T07:05:36.509889</dc:date>
    <dc:format>image/svg+xml</dc:format>
    <dc:creator>
     <cc:Agent>
      <dc:title>Matplotlib v3.8.4, https://matplotlib.org/</dc:title>
     </cc:Agent>
    </dc:creator>
   </cc:Work>
  </rdf:RDF>
 </metadata>
 <defs>
  <style type="text/css">*{stroke-linejoin: round; stroke-linecap: butt}</style>
 </defs>
 <g id="figure_1">
  <g id="patch_1">
   <path d="M 0 1444.4 
L 1082.839141 1444.4 
L 1082.839141 0 
L 0 0 
z
" style="fill: #ffffff"/>
  </g>
  <g id="axes_1">
   <g id="patch_2">
    <path d="M 27.23 1017.95 
L 1028.23 1017.95 
L 1028.23 855.45 
L 27.23 855.45 
z
" clip-path="url(#p7eff8499fd)" style="fill: #f3f4f6; stroke: #d1d5db; stroke-linejoin: miter"/>
   </g>
   <g id="text_1">
    <!-- Personal (Creator) — Lifecycle Email Flow -->
    <g style="fill: #1f2937" transform="translate(316.379063 25.096562) scale(0.18 -0.18)">
     <defs>
      <path id="DejaVuSans-Bold-50" d="M 588 4666 
L 2584 4666 
Q 3475 4666 3951 4270 
Q 4428 3875 4428 3144 
Q 4428 2409 3951 2014 
Q 3475 1619 2584 1619 
L 1791 1619 
L 1791 0 
L 588 0 
L 588 4666 
z
M 1791 3794 
L 1791 2491 
L 2456 2491 
Q 2806 2491 2997 2661 
Q 3188 2831 3188 3144 
Q 3188 3456 2997 3625 
Q 2806 3794 2456 3794 
L 1791 3794 
z
" transform="scale(0.015625)"/>
      <path id="DejaVuSans-Bold-65" d="M 4031 1759 
L 4031 1441 
L 1416 1441 
Q 1456 1047 1700 850 
Q 1944 653 2381 653 
Q 2734 653 3104 758 
Q 3475 863 3866 1075 
L 3866 213 
Q 3469 63 3072 -14 
Q 2675 -91 2278 -91 
Q 1328 -91 801 392 
Q 275 875 275 1747 
Q 275 2603 792 3093 
Q 1309 3584 2216 3584 
Q 3041 3584 3536 3087 
Q 4031 2591 4031 1759 
z
M 2881 2131 
Q 2881 2450 2695 2645 
Q 2509 2841 2209 2841 
Q 1884 2841 1681 2658 
Q 1478 2475 1428 2131 
L 2881 2131 
z
" transform="scale(0.015625)"/>
      <path id="DejaVuSans-Bold-72" d="M 3138 2547 
Q 2991 2616 2845 2648 
Q 2700 2681 2553 2681 
Q 2122 2681 1889 2404 
Q 1656 2128 1656 1613 
L 1656 0 
L 538 0 
L 538 3500 
L 1656 3500 
L 1656 2925 
Q 1872 3269 2151 3426 
Q 2431 3584 2822 3584 
Q 2878 3584 2943 3579 
Q 3009 3575 3134 3559 
L 3138 2547 
z
" transform="scale(0.015625)"/>
      <path id="DejaVuSans-Bold-73" d="M 3272 3391 
L 3272 2541 
Q 2913 2691 2578 2766 
Q 2244 2841 1947 2841 
Q 1628 2841 1473 2761 
Q 1319 2681 1319 2516 
Q 1319 2381 1436 2309 
Q 1553 2238 1856 2203 
L 2053 2175 
Q 2913 2066 3209 1816 
Q 3506 1566 3506 1031 
Q 3506 472 3093 190 
Q 2681 -91 1863 -91 
Q 1516 -91 1145 -36 
Q 775 19 384 128 
L 384 978 
Q 719 816 1070 734 
Q 1422 653 1784 653 
Q 2113 653 2278 743 
Q 2444 834 2444 1013 
Q 2444 1163 2330 1236 
Q 2216 1309 1875 1350 
L 1678 1375 
Q 931 1469 631 1722 
Q 331 1975 331 2491 
Q 331 3047 712 3315 
Q 1094 3584 1881 3584 
Q 2191 3584 2531 3537 
Q 2872 3491 3272 3391 
z
" transform="scale(0.015625)"/>
      <path id="DejaVuSans-Bold-6f" d="M 2203 2784 
Q 1831 2784 1636 2517 
Q 1441 2250 1441 1747 
Q 1441 1244 1636 976 
Q 1831 709 2203 709 
Q 2569 709 2762 976 
Q 2956 1244 2956 1747 
Q 2956 2250 2762 2517 
Q 2569 2784 2203 2784 
z
M 2203 3584 
Q 3106 3584 3614 3096 
Q 4122 2609 4122 1747 
Q 4122 884 3614 396 
Q 3106 -91 2203 -91 
Q 1297 -91 786 396 
Q 275 884 275 1747 
Q 275 2609 786 3096 
Q 1297 3584 2203 3584 
z
" transform="scale(0.015625)"/>
      <path id="DejaVuSans-Bold-6e" d="M 4056 2131 
L 4056 0 
L 2931 0 
L 2931 347 
L 2931 1631 
Q 2931 2084 2911 2256 
Q 2891 2428 2841 2509 
Q 2775 2619 2662 2680 
Q 2550 2741 2406 2741 
Q 2056 2741 1856 2470 
Q 1656 2200 1656 1722 
L 1656 0 
L 538 0 
L 538 3500 
L 1656 3500 
L 1656 2988 
Q 1909 3294 2193 3439 
Q 2478 3584 2822 3584 
Q 3428 3584 3742 3212 
Q 4056 2841 4056 2131 
z
" transform="scale(0.015625)"/>
      <path id="DejaVuSans-Bold-61" d="M 2106 1575 
Q 1756 1575 1579 1456 
Q 1403 1338 1403 1106 
Q 1403 894 1545 773 
Q 1688 653 1941 653 
Q 2256 653 2472 879 
Q 2688 1106 2688 1447 
L 2688 1575 
L 2106 1575 
z
M 3816 1997 
L 3816 0 
L 2688 0 
L 2688 519 
Q 2463 200 2181 54 
Q 1900 -91 1497 -91 
Q 953 -91 614 226 
Q 275 544 275 1050 
Q 275 1666 698 1953 
Q 1122 2241 2028 2241 
L 2688 2241 
L 2688 2328 
Q 2688 2594 2478 2717 
Q 2269 2841 1825 2841 
Q 1466 2841 1156 2769 
Q 847 2697 581 2553 
L 581 3406 
Q 941 3494 1303 3539 
Q 1666 3584 2028 3584 
Q 2975 3584 3395 3211 
Q 3816 2838 3816 1997 
z
" transform="scale(0.015625)"/>
      <path id="DejaVuSans-Bold-6c" d="M 538 4863 
L 1656 4863 
L 1656 0 
L 538 0 
L 538 4863 
z
" transform="scale(0.015625)"/>
      <path id="DejaVuSans-Bold-20" transform="scale(0.015625)"/>
      <path id="DejaVuSans-Bold-28" d="M 2413 -844 
L 1484 -844 
Q 1006 -72 778 623 
Q 550 1319 550 2003 
Q 550 2688 779 3389 
Q 1009 4091 1484 4856 
L 2413 4856 
Q 2013 4116 1813 3408 
Q 1613 2700 1613 2009 
Q 1613 1319 1811 609 
Q 2009 -100 2413 -844 
z
" transform="scale(0.015625)"/>
      <path id="DejaVuSans-Bold-43" d="M 4288 256 
Q 3956 84 3597 -3 
Q 3238 -91 2847 -91 
Q 1681 -91 1000 561 
Q 319 1213 319 2328 
Q 319 3447 1000 4098 
Q 1681 4750 2847 4750 
Q 3238 4750 3597 4662 
Q 3956 4575 4288 4403 
L 4288 3438 
Q 3953 3666 3628 3772 
Q 3303 3878 2944 3878 
Q 2300 3878 1931 3465 
Q 1563 3053 1563 2328 
Q 1563 1606 1931 1193 
Q 2300 781 2944 781 
Q 3303 781 3628 887 
Q 3953 994 4288 1222 
L 4288 256 
z
" transform="scale(0.015625)"/>
      <path id="DejaVuSans-Bold-74" d="M 1759 4494 
L 1759 3500 
L 2913 3500 
L 2913 2700 
L 1759 2700 
L 1759 1216 
Q 1759 972 1856 886 
Q 1953 800 2241 800 
L 2816 800 
L 2816 0 
L 1856 0 
Q 1194 0 917 276 
Q 641 553 641 1216 
L 641 2700 
L 84 2700 
L 84 3500 
L 641 3500 
L 641 4494 
L 1759 4494 
z
" transform="scale(0.015625)"/>
      <path id="DejaVuSans-Bold-29" d="M 513 -844 
Q 913 -100 1113 609 
Q 1313 1319 1313 2009 
Q 1313 2700 1113 3408 
Q 913 4116 513 4856 
L 1441 4856 
Q 1916 4091 2145 3389 
Q 2375 2688 2375 2003 
Q 2375 1319 2147 623 
Q 1919 -72 1441 -844 
L 513 -844 
z
" transform="scale(0.015625)"/>
      <path id="DejaVuSans-Bold-2014" d="M 344 2156 
L 6056 2156 
L 6056 1350 
L 344 1350 
L 344 2156 
z
" transform="scale(0.015625)"/>
      <path id="DejaVuSans-Bold-4c" d="M 588 4666 
L 1791 4666 
L 1791 909 
L 3903 909 
L 3903 0 
L 588 0 
L 588 4666 
z
" transform="scale(0.015625)"/>
      <path id="DejaVuSans-Bold-69" d="M 538 3500 
L 1656 3500 
L 1656 0 
L 538 0 
L 538 3500 
z
M 538 4863 
L 1656 4863 
L 1656 3950 
L 538 3950 
L 538 4863 
z
" transform="scale(0.015625)"/>
      <path id="DejaVuSans-Bold-66" d="M 2841 4863 
L 2841 4128 
L 2222 4128 
Q 1984 4128 1890 4042 
Q 1797 3956 1797 3744 
L 1797 3500 
L 2753 3500 
L 2753 2700 
L 1797 2700 
L 1797 0 
L 678 0 
L 678 2700 
L 122 2700 
L 122 3500 
L 678 3500 
L 678 3744 
Q 678 4316 997 4589 
Q 1316 4863 1984 4863 
L 2841 4863 
z
" transform="scale(0.015625)"/>
      <path id="DejaVuSans-Bold-63" d="M 3366 3391 
L 3366 2478 
Q 3138 2634 2908 2709 
Q 2678 2784 2431 2784 
Q 1963 2784 1702 2511 
Q 1441 2238 1441 1747 
Q 1441 1256 1702 982 
Q 1963 709 2431 709 
Q 2694 709 2930 787 
Q 3166 866 3366 1019 
L 3366 103 
Q 3103 6 2833 -42 
Q 2563 -91 2291 -91 
Q 1344 -91 809 395 
Q 275 881 275 1747 
Q 275 2613 809 3098 
Q 1344 3584 2291 3584 
Q 2566 3584 2833 3536 
Q 3100 3488 3366 3391 
z
" transform="scale(0.015625)"/>
      <path id="DejaVuSans-Bold-79" d="M 78 3500 
L 1197 3500 
L 2138 1125 
L 2938 3500 
L 4056 3500 
L 2584 -331 
Q 2363 -916 2067 -1148 
Q 1772 -1381 1288 -1381 
L 641 -1381 
L 641 -647 
L 991 -647 
Q 1275 -647 1404 -556 
Q 1534 -466 1606 -231 
L 1638 -134 
L 78 3500 
z
" transform="scale(0.015625)"/>
      <path id="DejaVuSans-Bold-45" d="M 588 4666 
L 3834 4666 
L 3834 3756 
L 1791 3756 
L 1791 2888 
L 3713 2888 
L 3713 1978 
L 1791 1978 
L 1791 909 
L 3903 909 
L 3903 0 
L 588 0 
L 588 4666 
z
" transform="scale(0.015625)"/>
      <path id="DejaVuSans-Bold-6d" d="M 3781 2919 
Q 3994 3244 4286 3414 
Q 4578 3584 4928 3584 
Q 5531 3584 5847 3212 
Q 6163 2841 6163 2131 
L 6163 0 
L 5038 0 
L 5038 1825 
Q 5041 1866 5042 1909 
Q 5044 1953 5044 2034 
Q 5044 2406 4934 2573 
Q 4825 2741 4581 2741 
Q 4263 2741 4089 2478 
Q 3916 2216 3909 1719 
L 3909 0 
L 2784 0 
L 2784 1825 
Q 2784 2406 2684 2573 
Q 2584 2741 2328 2741 
Q 2006 2741 1831 2477 
Q 1656 2213 1656 1722 
L 1656 0 
L 531 0 
L 531 3500 
L 1656 3500 
L 1656 2988 
Q 1863 3284 2130 3434 
Q 2397 3584 2719 3584 
Q 3081 3584 3359 3409 
Q 3638 3234 3781 2919 
z
" transform="scale(0.015625)"/>
      <path id="DejaVuSans-Bold-46" d="M 588 4666 
L 3834 4666 
L 3834 3756 
L 1791 3756 
L 1791 2888 
L 3713 2888 
L 3713 1978 
L 1791 1978 
L 1791 0 
L 588 0 
L 588 4666 
z
" transform="scale(0.015625)"/>
      <path id="DejaVuSans-Bold-77" d="M 225 3500 
L 1313 3500 
L 1900 1088 
L 2491 3500 
L 3425 3500 
L 4013 1113 
L 4603 3500 
L 5691 3500 
L 4769 0 
L 3547 0 
L 2956 2406 
L 2369 0 
L 1147 0 
L 225 3500 
z
" transform="scale(0.015625)"/>
     </defs>
     <use xlink:href="#DejaVuSans-Bold-50"/>
     <use xlink:href="#DejaVuSans-Bold-65" x="73.291016"/>
     <use xlink:href="#DejaVuSans-Bold-72" x="141.113281"/>
     <use xlink:href="#DejaVuSans-Bold-73" x="190.429688"/>
     <use xlink:href="#DejaVuSans-Bold-6f" x="249.951172"/>
     <use xlink:href="#DejaVuSans-Bold-6e" x="318.652344"/>
     <use xlink:href="#DejaVuSans-Bold-61" x="389.84375"/>
     <use xlink:href="#DejaVuSans-Bold-6c" x="457.324219"/>
     <use xlink:href="#DejaVuSans-Bold-20" x="491.601562"/>
     <use xlink:href="#DejaVuSans-Bold-28" x="526.416016"/>
     <use xlink:href="#DejaVuSans-Bold-43" x="572.119141"/>
     <use xlink:href="#DejaVuSans-Bold-72" x="645.507812"/>
     <use xlink:href="#DejaVuSans-Bold-65" x="694.824219"/>
     <use xlink:href="#DejaVuSans-Bold-61" x="762.646484"/>
     <use xlink:href="#DejaVuSans-Bold-74" x="830.126953"/>
     <use xlink:href="#DejaVuSans-Bold-6f" x="877.929688"/>
     <use xlink:href="#DejaVuSans-Bold-72" x="946.630859"/>
     <use xlink:href="#DejaVuSans-Bold-29" x="995.947266"/>
     <use xlink:href="#DejaVuSans-Bold-20" x="1041.650391"/>
     <use xlink:href="#DejaVuSans-Bold-2014" x="1076.464844"/>
     <use xlink:href="#DejaVuSans-Bold-20" x="1176.464844"/>
     <use xlink:href="#DejaVuSans-Bold-4c" x="1211.279297"/>
     <use xlink:href="#DejaVuSans-Bold-69" x="1275"/>
     <use xlink:href="#DejaVuSans-Bold-66" x="1309.277344"/>
     <use xlink:href="#DejaVuSans-Bold-65" x="1352.783203"/>
     <use xlink:href="#DejaVuSans-Bold-63" x="1420.605469"/>
     <use xlink:href="#DejaVuSans-Bold-79" x="1479.882812"/>
     <use xlink:href="#DejaVuSans-Bold-63" x="1545.068359"/>
     <use xlink:href="#DejaVuSans-Bold-6c" x="1604.345703"/>
     <use xlink:href="#DejaVuSans-Bold-65" x="1638.623047"/>
     <use xlink:href="#DejaVuSans-Bold-20" x="1706.445312"/>
     <use xlink:href="#DejaVuSans-Bold-45" x="1741.259766"/>
     <use xlink:href="#DejaVuSans-Bold-6d" x="1809.570312"/>
     <use xlink:href="#DejaVuSans-Bold-61" x="1913.769531"/>
     <use xlink:href="#DejaVuSans-Bold-69" x="1981.25"/>
     <use xlink:href="#DejaVuSans-Bold-6c" x="2015.527344"/>
     <use xlink:href="#DejaVuSans-Bold-20" x="2049.804688"/>
     <use xlink:href="#DejaVuSans-Bold-46" x="2084.619141"/>
     <use xlink:href="#DejaVuSans-Bold-6c" x="2152.929688"/>
     <use xlink:href="#DejaVuSans-Bold-6f" x="2187.207031"/>
     <use xlink:href="#DejaVuSans-Bold-77" x="2255.908203"/>
    </g>
   </g>
   <g id="text_2">
    <!-- 6-month avg segment sizes (Sep 2025 – Feb 2026) -->
    <g style="fill: #6b7280" transform="translate(399.97375 55.459375) scale(0.1 -0.1)">
     <defs>
      <path id="DejaVuSans-Oblique-36" d="M 2938 1728 
Q 2938 2125 2734 2354 
Q 2531 2584 2181 2584 
Q 1697 2584 1367 2211 
Q 1038 1838 1038 1288 
Q 1038 875 1239 642 
Q 1441 409 1797 409 
Q 2284 409 2611 792 
Q 2938 1175 2938 1728 
z
M 3788 4556 
L 3681 3981 
Q 3500 4100 3265 4162 
Q 3031 4225 2766 4225 
Q 2119 4225 1726 3819 
Q 1334 3413 1141 2547 
Q 1369 2813 1670 2948 
Q 1972 3084 2322 3084 
Q 2894 3084 3233 2754 
Q 3572 2425 3572 1869 
Q 3572 1413 3405 1020 
Q 3238 628 2919 331 
Q 2700 128 2409 18 
Q 2119 -91 1791 -91 
Q 1147 -91 775 318 
Q 403 728 403 1441 
Q 403 2103 573 2717 
Q 744 3331 1050 3781 
Q 1372 4256 1830 4503 
Q 2288 4750 2841 4750 
Q 3084 4750 3321 4701 
Q 3559 4653 3788 4556 
z
" transform="scale(0.015625)"/>
      <path id="DejaVuSans-Oblique-2d" d="M 391 2009 
L 2075 2009 
L 1978 1497 
L 288 1497 
L 391 2009 
z
" transform="scale(0.015625)"/>
      <path id="DejaVuSans-Oblique-6d" d="M 5747 2113 
L 5338 0 
L 4763 0 
L 5166 2094 
Q 5191 2228 5203 2325 
Q 5216 2422 5216 2491 
Q 5216 2772 5059 2928 
Q 4903 3084 4622 3084 
Q 4203 3084 3875 2770 
Q 3547 2456 3450 1953 
L 3066 0 
L 2491 0 
L 2900 2094 
Q 2925 2209 2937 2307 
Q 2950 2406 2950 2484 
Q 2950 2769 2794 2926 
Q 2638 3084 2363 3084 
Q 1938 3084 1609 2770 
Q 1281 2456 1184 1953 
L 800 0 
L 225 0 
L 909 3500 
L 1484 3500 
L 1375 2956 
Q 1609 3263 1923 3423 
Q 2238 3584 2597 3584 
Q 2978 3584 3223 3384 
Q 3469 3184 3519 2828 
Q 3781 3197 4126 3390 
Q 4472 3584 4856 3584 
Q 5306 3584 5551 3325 
Q 5797 3066 5797 2591 
Q 5797 2488 5784 2364 
Q 5772 2241 5747 2113 
z
" transform="scale(0.015625)"/>
      <path id="DejaVuSans-Oblique-6f" d="M 1625 -91 
Q 1009 -91 651 289 
Q 294 669 294 1325 
Q 294 1706 417 2101 
Q 541 2497 738 2766 
Q 1047 3184 1428 3384 
Q 1809 3584 2291 3584 
Q 2888 3584 3255 3212 
Q 3622 2841 3622 2241 
Q 3622 1825 3500 1412 
Q 3378 1000 3181 728 
Q 2875 309 2494 109 
Q 2113 -91 1625 -91 
z
M 891 1344 
Q 891 869 1089 633 
Q 1288 397 1691 397 
Q 2269 397 2648 901 
Q 3028 1406 3028 2181 
Q 3028 2634 2825 2865 
Q 2622 3097 2228 3097 
Q 1903 3097 1650 2945 
Q 1397 2794 1197 2484 
Q 1050 2253 970 1956 
Q 891 1659 891 1344 
z
" transform="scale(0.015625)"/>
      <path id="DejaVuSans-Oblique-6e" d="M 3566 2113 
L 3156 0 
L 2578 0 
L 2988 2091 
Q 3016 2238 3031 2350 
Q 3047 2463 3047 2528 
Q 3047 2791 2881 2937 
Q 2716 3084 2419 3084 
Q 1956 3084 1622 2776 
Q 1288 2469 1184 1941 
L 800 0 
L 225 0 
L 903 3500 
L 1478 3500 
L 1363 2950 
Q 1603 3253 1940 3418 
Q 2278 3584 2650 3584 
Q 3113 3584 3367 3334 
Q 3622 3084 3622 2631 
Q 3622 2519 3608 2391 
Q 3594 2263 3566 2113 
z
" transform="scale(0.015625)"/>
      <path id="DejaVuSans-Oblique-74" d="M 2706 3500 
L 2619 3053 
L 1472 3053 
L 1100 1153 
Q 1081 1047 1072 975 
Q 1063 903 1063 863 
Q 1063 663 1183 572 
Q 1303 481 1569 481 
L 2150 481 
L 2053 0 
L 1503 0 
Q 991 0 739 200 
Q 488 400 488 806 
Q 488 878 497 964 
Q 506 1050 525 1153 
L 897 3053 
L 409 3053 
L 500 3500 
L 978 3500 
L 1172 4494 
L 1747 4494 
L 1556 3500 
L 2706 3500 
z
" transform="scale(0.015625)"/>
      <path id="DejaVuSans-Oblique-68" d="M 3566 2113 
L 3156 0 
L 2578 0 
L 2988 2091 
Q 3016 2238 3031 2350 
Q 3047 2463 3047 2528 
Q 3047 2791 2881 2937 
Q 2716 3084 2419 3084 
Q 1956 3084 1617 2771 
Q 1278 2459 1178 1941 
L 800 0 
L 225 0 
L 1172 4863 
L 1747 4863 
L 1375 2950 
Q 1594 3244 1934 3414 
Q 2275 3584 2650 3584 
Q 3113 3584 3367 3334 
Q 3622 3084 3622 2631 
Q 3622 2519 3608 2391 
Q 3594 2263 3566 2113 
z
" transform="scale(0.015625)"/>
      <path id="DejaVuSans-Oblique-20" transform="scale(0.015625)"/>
      <path id="DejaVuSans-Oblique-61" d="M 3438 1997 
L 3047 0 
L 2472 0 
L 2578 531 
Q 2325 219 2001 64 
Q 1678 -91 1281 -91 
Q 834 -91 548 182 
Q 263 456 263 884 
Q 263 1497 752 1853 
Q 1241 2209 2100 2209 
L 2900 2209 
L 2931 2363 
Q 2938 2388 2941 2417 
Q 2944 2447 2944 2509 
Q 2944 2788 2717 2942 
Q 2491 3097 2081 3097 
Q 1800 3097 1504 3025 
Q 1209 2953 897 2809 
L 997 3341 
Q 1322 3463 1633 3523 
Q 1944 3584 2234 3584 
Q 2853 3584 3176 3315 
Q 3500 3047 3500 2534 
Q 3500 2431 3484 2292 
Q 3469 2153 3438 1997 
z
M 2816 1759 
L 2241 1759 
Q 1534 1759 1195 1570 
Q 856 1381 856 984 
Q 856 709 1029 553 
Q 1203 397 1509 397 
Q 1978 397 2328 733 
Q 2678 1069 2791 1631 
L 2816 1759 
z
" transform="scale(0.015625)"/>
      <path id="DejaVuSans-Oblique-76" d="M 459 3500 
L 1069 3500 
L 1581 525 
L 3256 3500 
L 3866 3500 
L 1875 0 
L 1100 0 
L 459 3500 
z
" transform="scale(0.015625)"/>
      <path id="DejaVuSans-Oblique-67" d="M 3816 3500 
L 3219 434 
Q 3047 -456 2561 -893 
Q 2075 -1331 1253 -1331 
Q 950 -1331 690 -1286 
Q 431 -1241 206 -1147 
L 313 -588 
Q 525 -725 762 -790 
Q 1000 -856 1269 -856 
Q 1816 -856 2167 -557 
Q 2519 -259 2631 300 
L 2681 563 
Q 2441 288 2122 144 
Q 1803 0 1434 0 
Q 903 0 598 351 
Q 294 703 294 1319 
Q 294 1803 478 2267 
Q 663 2731 997 3091 
Q 1219 3328 1514 3456 
Q 1809 3584 2131 3584 
Q 2484 3584 2746 3420 
Q 3009 3256 3138 2956 
L 3238 3500 
L 3816 3500 
z
M 2950 2216 
Q 2950 2641 2750 2872 
Q 2550 3103 2181 3103 
Q 1953 3103 1747 3012 
Q 1541 2922 1394 2759 
Q 1156 2491 1023 2127 
Q 891 1763 891 1375 
Q 891 944 1092 712 
Q 1294 481 1672 481 
Q 2219 481 2584 976 
Q 2950 1472 2950 2216 
z
" transform="scale(0.015625)"/>
      <path id="DejaVuSans-Oblique-73" d="M 3200 3397 
L 3091 2853 
Q 2863 2978 2609 3040 
Q 2356 3103 2088 3103 
Q 1634 3103 1373 2948 
Q 1113 2794 1113 2528 
Q 1113 2219 1719 2053 
Q 1766 2041 1788 2034 
L 1972 1978 
Q 2547 1819 2739 1644 
Q 2931 1469 2931 1166 
Q 2931 609 2489 259 
Q 2047 -91 1331 -91 
Q 1053 -91 747 -37 
Q 441 16 72 128 
L 184 722 
Q 500 559 806 475 
Q 1113 391 1394 391 
Q 1816 391 2080 572 
Q 2344 753 2344 1031 
Q 2344 1331 1650 1516 
L 1591 1531 
L 1394 1581 
Q 956 1697 753 1886 
Q 550 2075 550 2369 
Q 550 2928 970 3256 
Q 1391 3584 2113 3584 
Q 2397 3584 2667 3537 
Q 2938 3491 3200 3397 
z
" transform="scale(0.015625)"/>
      <path id="DejaVuSans-Oblique-65" d="M 3078 2063 
Q 3088 2113 3092 2166 
Q 3097 2219 3097 2272 
Q 3097 2653 2873 2875 
Q 2650 3097 2266 3097 
Q 1838 3097 1509 2826 
Q 1181 2556 1013 2059 
L 3078 2063 
z
M 3578 1613 
L 903 1613 
Q 884 1494 878 1425 
Q 872 1356 872 1306 
Q 872 872 1139 634 
Q 1406 397 1894 397 
Q 2269 397 2603 481 
Q 2938 566 3225 728 
L 3116 159 
Q 2806 34 2476 -28 
Q 2147 -91 1806 -91 
Q 1078 -91 686 257 
Q 294 606 294 1247 
Q 294 1794 489 2264 
Q 684 2734 1063 3103 
Q 1306 3334 1642 3459 
Q 1978 3584 2356 3584 
Q 2950 3584 3301 3228 
Q 3653 2872 3653 2272 
Q 3653 2128 3634 1964 
Q 3616 1800 3578 1613 
z
" transform="scale(0.015625)"/>
      <path id="DejaVuSans-Oblique-69" d="M 1172 4863 
L 1747 4863 
L 1606 4134 
L 1031 4134 
L 1172 4863 
z
M 909 3500 
L 1484 3500 
L 800 0 
L 225 0 
L 909 3500 
z
" transform="scale(0.015625)"/>
      <path id="DejaVuSans-Oblique-7a" d="M 744 3500 
L 3475 3500 
L 3372 2975 
L 738 459 
L 2913 459 
L 2822 0 
L -19 0 
L 84 525 
L 2719 3041 
L 653 3041 
L 744 3500 
z
" transform="scale(0.015625)"/>
      <path id="DejaVuSans-Oblique-28" d="M 2731 4856 
Q 1903 3822 1495 2892 
Q 1088 1963 1088 1100 
Q 1088 606 1206 120 
Q 1325 -366 1563 -844 
L 1063 -844 
Q 775 -306 634 201 
Q 494 709 494 1197 
Q 494 2125 923 3036 
Q 1353 3947 2222 4856 
L 2731 4856 
z
" transform="scale(0.015625)"/>
      <path id="DejaVuSans-Oblique-53" d="M 3859 4513 
L 3738 3897 
Q 3422 4066 3111 4152 
Q 2800 4238 2509 4238 
Q 1944 4238 1609 3991 
Q 1275 3744 1275 3334 
Q 1275 3109 1398 2989 
Q 1522 2869 2034 2731 
L 2413 2638 
Q 3053 2472 3303 2217 
Q 3553 1963 3553 1503 
Q 3553 797 2998 353 
Q 2444 -91 1538 -91 
Q 1166 -91 791 -17 
Q 416 56 38 206 
L 166 856 
Q 513 641 861 531 
Q 1209 422 1556 422 
Q 2147 422 2503 684 
Q 2859 947 2859 1369 
Q 2859 1650 2717 1795 
Q 2575 1941 2106 2059 
L 1728 2156 
Q 1081 2325 845 2545 
Q 609 2766 609 3163 
Q 609 3859 1145 4304 
Q 1681 4750 2541 4750 
Q 2875 4750 3203 4690 
Q 3531 4631 3859 4513 
z
" transform="scale(0.015625)"/>
      <path id="DejaVuSans-Oblique-70" d="M 3175 2156 
Q 3175 2616 2975 2859 
Q 2775 3103 2400 3103 
Q 2144 3103 1911 2972 
Q 1678 2841 1497 2591 
Q 1319 2344 1212 1994 
Q 1106 1644 1106 1300 
Q 1106 863 1306 627 
Q 1506 391 1875 391 
Q 2147 391 2380 519 
Q 2613 647 2778 891 
Q 2956 1147 3065 1494 
Q 3175 1841 3175 2156 
z
M 1394 2969 
Q 1625 3272 1939 3428 
Q 2253 3584 2638 3584 
Q 3175 3584 3472 3232 
Q 3769 2881 3769 2247 
Q 3769 1728 3584 1258 
Q 3400 788 3053 416 
Q 2822 169 2531 39 
Q 2241 -91 1919 -91 
Q 1547 -91 1294 64 
Q 1041 219 916 525 
L 556 -1331 
L -19 -1331 
L 922 3500 
L 1497 3500 
L 1394 2969 
z
" transform="scale(0.015625)"/>
      <path id="DejaVuSans-Oblique-32" d="M 2950 2253 
L 934 525 
L 3163 525 
L 3053 0 
L 25 0 
L 128 531 
L 2234 2338 
Q 2656 2703 2832 2979 
Q 3009 3256 3009 3547 
Q 3009 3850 2796 4040 
Q 2584 4231 2241 4231 
Q 1944 4231 1581 4125 
Q 1219 4019 806 3816 
L 922 4441 
Q 1309 4594 1662 4672 
Q 2016 4750 2316 4750 
Q 2928 4750 3301 4425 
Q 3675 4100 3675 3572 
Q 3675 3216 3497 2892 
Q 3319 2569 2950 2253 
z
" transform="scale(0.015625)"/>
      <path id="DejaVuSans-Oblique-30" d="M 2444 4750 
Q 3078 4750 3414 4328 
Q 3750 3906 3750 3116 
Q 3750 2516 3592 1923 
Q 3434 1331 3150 863 
Q 2859 394 2467 151 
Q 2075 -91 1600 -91 
Q 988 -91 653 334 
Q 319 759 319 1544 
Q 319 2138 480 2733 
Q 641 3328 928 3794 
Q 1216 4263 1602 4506 
Q 1988 4750 2444 4750 
z
M 2406 4250 
Q 2169 4250 1955 4123 
Q 1741 3997 1569 3750 
Q 1281 3338 1111 2720 
Q 941 2103 941 1453 
Q 941 938 1123 673 
Q 1306 409 1663 409 
Q 1913 409 2125 536 
Q 2338 663 2509 909 
Q 2794 1319 2961 1936 
Q 3128 2553 3128 3206 
Q 3128 3722 2945 3986 
Q 2763 4250 2406 4250 
z
" transform="scale(0.015625)"/>
      <path id="DejaVuSans-Oblique-35" d="M 3719 4666 
L 3622 4141 
L 1691 4141 
L 1466 2988 
Q 1609 3034 1757 3056 
Q 1906 3078 2059 3078 
Q 2706 3078 3081 2731 
Q 3456 2384 3456 1791 
Q 3456 1375 3264 994 
Q 3072 613 2719 325 
Q 2469 125 2108 17 
Q 1747 -91 1319 -91 
Q 1038 -91 744 -41 
Q 450 9 128 109 
L 244 697 
Q 531 556 820 486 
Q 1109 416 1403 416 
Q 2013 416 2411 781 
Q 2809 1147 2809 1697 
Q 2809 2103 2548 2328 
Q 2288 2553 1819 2553 
Q 1572 2553 1305 2495 
Q 1038 2438 756 2322 
L 1209 4666 
L 3719 4666 
z
" transform="scale(0.015625)"/>
      <path id="DejaVuSans-Oblique-2013" d="M 356 1978 
L 2931 1978 
L 2844 1528 
L 269 1528 
L 356 1978 
z
" transform="scale(0.015625)"/>
      <path id="DejaVuSans-Oblique-46" d="M 1081 4666 
L 3756 4666 
L 3653 4134 
L 1606 4134 
L 1338 2759 
L 3188 2759 
L 3084 2228 
L 1234 2228 
L 800 0 
L 172 0 
L 1081 4666 
z
" transform="scale(0.015625)"/>
      <path id="DejaVuSans-Oblique-62" d="M 3169 2138 
Q 3169 2591 2961 2847 
Q 2753 3103 2388 3103 
Q 2122 3103 1889 2973 
Q 1656 2844 1484 2597 
Q 1303 2338 1198 1995 
Q 1094 1653 1094 1313 
Q 1094 881 1298 636 
Q 1503 391 1863 391 
Q 2134 391 2365 517 
Q 2597 644 2772 891 
Q 2950 1147 3059 1487 
Q 3169 1828 3169 2138 
z
M 1381 2969 
Q 1594 3256 1914 3420 
Q 2234 3584 2584 3584 
Q 3122 3584 3439 3221 
Q 3756 2859 3756 2241 
Q 3756 1734 3570 1259 
Q 3384 784 3041 416 
Q 2816 172 2522 40 
Q 2228 -91 1906 -91 
Q 1566 -91 1316 65 
Q 1066 222 909 531 
L 806 0 
L 231 0 
L 1178 4863 
L 1753 4863 
L 1381 2969 
z
" transform="scale(0.015625)"/>
      <path id="DejaVuSans-Oblique-29" d="M -397 -844 
Q 434 191 840 1120 
Q 1247 2050 1247 2913 
Q 1247 3406 1130 3892 
Q 1013 4378 775 4856 
L 1275 4856 
Q 1563 4316 1703 3812 
Q 1844 3309 1844 2822 
Q 1844 1891 1411 973 
Q 978 56 116 -844 
L -397 -844 
z
" transform="scale(0.015625)"/>
     </defs>
     <use xlink:href="#DejaVuSans-Oblique-36"/>
     <use xlink:href="#DejaVuSans-Oblique-2d" x="63.623047"/>
     <use xlink:href="#DejaVuSans-Oblique-6d" x="99.707031"/>
     <use xlink:href="#DejaVuSans-Oblique-6f" x="197.119141"/>
     <use xlink:href="#DejaVuSans-Oblique-6e" x="258.300781"/>
     <use xlink:href="#DejaVuSans-Oblique-74" x="321.679688"/>
     <use xlink:href="#DejaVuSans-Oblique-68" x="360.888672"/>
     <use xlink:href="#DejaVuSans-Oblique-20" x="424.267578"/>
     <use xlink:href="#DejaVuSans-Oblique-61" x="456.054688"/>
     <use xlink:href="#DejaVuSans-Oblique-76" x="517.333984"/>
     <use xlink:href="#DejaVuSans-Oblique-67" x="576.513672"/>
     <use xlink:href="#DejaVuSans-Oblique-20" x="639.990234"/>
     <use xlink:href="#DejaVuSans-Oblique-73" x="671.777344"/>
     <use xlink:href="#DejaVuSans-Oblique-65" x="723.876953"/>
     <use xlink:href="#DejaVuSans-Oblique-67" x="785.400391"/>
     <use xlink:href="#DejaVuSans-Oblique-6d" x="848.876953"/>
     <use xlink:href="#DejaVuSans-Oblique-65" x="946.289062"/>
     <use xlink:href="#DejaVuSans-Oblique-6e" x="1007.8125"/>
     <use xlink:href="#DejaVuSans-Oblique-74" x="1071.191406"/>
     <use xlink:href="#DejaVuSans-Oblique-20" x="1110.400391"/>
     <use xlink:href="#DejaVuSans-Oblique-73" x="1142.1875"/>
     <use xlink:href="#DejaVuSans-Oblique-69" x="1194.287109"/>
     <use xlink:href="#DejaVuSans-Oblique-7a" x="1222.070312"/>
     <use xlink:href="#DejaVuSans-Oblique-65" x="1274.560547"/>
     <use xlink:href="#DejaVuSans-Oblique-73" x="1336.083984"/>
     <use xlink:href="#DejaVuSans-Oblique-20" x="1388.183594"/>
     <use xlink:href="#DejaVuSans-Oblique-28" x="1419.970703"/>
     <use xlink:href="#DejaVuSans-Oblique-53" x="1458.984375"/>
     <use xlink:href="#DejaVuSans-Oblique-65" x="1522.460938"/>
     <use xlink:href="#DejaVuSans-Oblique-70" x="1583.984375"/>
     <use xlink:href="#DejaVuSans-Oblique-20" x="1647.460938"/>
     <use xlink:href="#DejaVuSans-Oblique-32" x="1679.248047"/>
     <use xlink:href="#DejaVuSans-Oblique-30" x="1742.871094"/>
     <use xlink:href="#DejaVuSans-Oblique-32" x="1806.494141"/>
     <use xlink:href="#DejaVuSans-Oblique-35" x="1870.117188"/>
     <use xlink:href="#DejaVuSans-Oblique-20" x="1933.740234"/>
     <use xlink:href="#DejaVuSans-Oblique-2013" x="1965.527344"/>
     <use xlink:href="#DejaVuSans-Oblique-20" x="2015.527344"/>
     <use xlink:href="#DejaVuSans-Oblique-46" x="2047.314453"/>
     <use xlink:href="#DejaVuSans-Oblique-65" x="2104.833984"/>
     <use xlink:href="#DejaVuSans-Oblique-62" x="2166.357422"/>
     <use xlink:href="#DejaVuSans-Oblique-20" x="2229.833984"/>
     <use xlink:href="#DejaVuSans-Oblique-32" x="2261.621094"/>
     <use xlink:href="#DejaVuSans-Oblique-30" x="2325.244141"/>
     <use xlink:href="#DejaVuSans-Oblique-32" x="2388.867188"/>
     <use xlink:href="#DejaVuSans-Oblique-36" x="2452.490234"/>
     <use xlink:href="#DejaVuSans-Oblique-29" x="2516.113281"/>
    </g>
   </g>
   <g id="patch_3">
    <path d="M 411.98272 104.7 
Q 292.107884 104.7 173.910099 104.7 
" style="fill: none; stroke: #059669; stroke-width: 1.5; stroke-linecap: round"/>
    <path d="M 177.910099 106.7 
L 173.910099 104.7 
L 177.910099 102.7 
" style="fill: none; stroke: #059669; stroke-width: 1.5; stroke-linecap: round"/>
   </g>
   <g id="patch_4">
    <path d="M 527.73 158.69852 
Q 527.73 177.824361 527.73 194.714133 
" style="fill: none; stroke: #dc2626; stroke-width: 2; stroke-linecap: round"/>
    <path d="M 529.73 190.714133 
L 527.73 194.714133 
L 525.73 190.714133 
" style="fill: none; stroke: #dc2626; stroke-width: 2; stroke-linecap: round"/>
   </g>
   <g id="patch_5">
    <path d="M 527.73 269.203479 
Q 527.73 283.452189 527.73 295.464831 
" style="fill: none; stroke: #4f46e5; stroke-width: 2; stroke-linecap: round"/>
    <path d="M 529.73 291.464831 
L 527.73 295.464831 
L 525.73 291.464831 
" style="fill: none; stroke: #4f46e5; stroke-width: 2; stroke-linecap: round"/>
   </g>
   <g id="patch_6">
    <path d="M 395.727513 351.7 
Q 300.228553 351.7 206.406644 351.7 
" style="fill: none; stroke: #059669; stroke-width: 1.5; stroke-linecap: round"/>
    <path d="M 210.406644 353.7 
L 206.406644 351.7 
L 210.406644 349.7 
" style="fill: none; stroke: #059669; stroke-width: 1.5; stroke-linecap: round"/>
   </g>
   <g id="patch_7">
    <path d="M 659.733479 351.7 
Q 690.230116 351.7 718.490686 351.7 
" style="fill: none; stroke: #dc2626; stroke-width: 2; stroke-linecap: round"/>
    <path d="M 714.490686 349.7 
L 718.490686 351.7 
L 714.490686 353.7 
" style="fill: none; stroke: #dc2626; stroke-width: 2; stroke-linecap: round"/>
   </g>
   <g id="patch_8">
    <path d="M 722.73 353.703479 
Q 722.73 384.200116 722.73 412.460686 
" style="fill: none; stroke: #dc2626; stroke-width: 2; stroke-linecap: round"/>
    <path d="M 724.73 408.460686 
L 722.73 412.460686 
L 720.73 408.460686 
" style="fill: none; stroke: #dc2626; stroke-width: 2; stroke-linecap: round"/>
   </g>
   <g id="patch_9">
    <path d="M 720.733464 416.833102 
Q 625.228614 423.200092 531.95488 429.418341 
" style="fill: none; stroke: #dc2626; stroke-width: 2; stroke-linecap: round"/>
    <path d="M 536.079059 431.147836 
L 531.95488 429.418341 
L 535.812982 427.156695 
" style="fill: none; stroke: #dc2626; stroke-width: 2; stroke-linecap: round"/>
   </g>
   <g id="patch_10">
    <path d="M 379.921353 482.946918 
Q 324.608017 527.197587 271.040756 570.051395 
" style="fill: none; stroke: #2563eb; stroke-width: 2; stroke-linecap: round"/>
    <path d="M 275.413621 569.114352 
L 271.040756 570.051395 
L 272.914841 565.990877 
" style="fill: none; stroke: #2563eb; stroke-width: 2; stroke-linecap: round"/>
   </g>
   <g id="patch_11">
    <path d="M 119.48148 624.7 
Q 80.854607 624.7 43.904784 624.7 
" style="fill: none; stroke: #2563eb; stroke-width: 1.5; stroke-linecap: round"/>
    <path d="M 47.904784 626.7 
L 43.904784 624.7 
L 47.904784 622.7 
" style="fill: none; stroke: #2563eb; stroke-width: 1.5; stroke-linecap: round"/>
   </g>
   <g id="patch_12">
    <path d="M 40.23 626.702289 
Q 40.23 715.700028 40.23 803.020716 
" style="fill: none; stroke: #2563eb; stroke-width: 1.5; stroke-linecap: round"/>
    <path d="M 42.23 799.020716 
L 40.23 803.020716 
L 38.23 799.020716 
" style="fill: none; stroke: #2563eb; stroke-width: 1.5; stroke-linecap: round"/>
   </g>
   <g id="patch_13">
    <path d="M 267.73 678.703479 
Q 267.73 741.699814 267.73 803.019097 
" style="fill: none; stroke: #7c3aed; stroke-width: 1.5; stroke-linecap: round"/>
    <path d="M 269.73 799.019097 
L 267.73 803.019097 
L 265.73 799.019097 
" style="fill: none; stroke: #7c3aed; stroke-width: 1.5; stroke-linecap: round"/>
   </g>
   <g id="patch_14">
    <path d="M 675.678246 482.756686 
Q 747.106037 527.200645 816.63528 570.463285 
" style="fill: none; stroke: #dc2626; stroke-width: 2; stroke-linecap: round"/>
    <path d="M 814.295658 566.651965 
L 816.63528 570.463285 
L 812.18245 570.048191 
" style="fill: none; stroke: #dc2626; stroke-width: 2; stroke-linecap: round"/>
   </g>
   <g id="patch_15">
    <path d="M 673.165467 626.524554 
Q 633.355827 715.698149 594.229838 803.340364 
" style="fill: none; stroke: #d97706; stroke-width: 1.5; stroke-linecap: round"/>
    <path d="M 597.686717 800.503114 
L 594.229838 803.340364 
L 594.034165 798.872511 
" style="fill: none; stroke: #d97706; stroke-width: 1.5; stroke-linecap: round"/>
   </g>
   <g id="patch_16">
    <path d="M 820.23 678.703479 
Q 820.23 741.699814 820.23 803.019097 
" style="fill: none; stroke: #ea580c; stroke-width: 1.5; stroke-linecap: round"/>
    <path d="M 822.23 799.019097 
L 820.23 803.019097 
L 818.23 799.019097 
" style="fill: none; stroke: #ea580c; stroke-width: 1.5; stroke-linecap: round"/>
   </g>
   <g id="patch_17">
    <path d="M 967.294533 626.524554 
Q 1007.104173 715.698149 1046.230162 803.340364 
" style="fill: none; stroke: #dc2626; stroke-width: 1.5; stroke-linecap: round"/>
    <path d="M 1046.425835 798.872511 
L 1046.230162 803.340364 
L 1042.773283 800.503114 
" style="fill: none; stroke: #dc2626; stroke-width: 1.5; stroke-linecap: round"/>
   </g>
   <g id="text_3">
    <g id="patch_18">
     <path d="M 272.628438 90.163203 
L 288.831563 90.163203 
Q 289.681563 90.163203 289.681563 89.313203 
L 289.681563 81.086797 
Q 289.681563 80.236797 288.831563 80.236797 
L 272.628438 80.236797 
Q 271.778437 80.236797 271.778437 81.086797 
L 271.778437 89.313203 
Q 271.778437 90.163203 272.628438 90.163203 
z
" style="fill: #ffffff; opacity: 0.9"/>
    </g>
    <!-- Yes -->
    <g style="fill: #059669" transform="translate(272.628438 87.545469) scale(0.085 -0.085)">
     <defs>
      <path id="DejaVuSans-Bold-59" d="M -63 4666 
L 1253 4666 
L 2316 3003 
L 3378 4666 
L 4697 4666 
L 2919 1966 
L 2919 0 
L 1716 0 
L 1716 1966 
L -63 4666 
z
" transform="scale(0.015625)"/>
     </defs>
     <use xlink:href="#DejaVuSans-Bold-59"/>
     <use xlink:href="#DejaVuSans-Bold-65" x="63.287109"/>
     <use xlink:href="#DejaVuSans-Bold-73" x="131.109375"/>
    </g>
   </g>
   <g id="text_4">
    <g id="patch_19">
     <path d="M 553.753398 135.663203 
L 566.706602 135.663203 
Q 567.556602 135.663203 567.556602 134.813203 
L 567.556602 126.586797 
Q 567.556602 125.736797 566.706602 125.736797 
L 553.753398 125.736797 
Q 552.903398 125.736797 552.903398 126.586797 
L 552.903398 134.813203 
Q 552.903398 135.663203 553.753398 135.663203 
z
" style="fill: #ffffff; opacity: 0.9"/>
    </g>
    <!-- No -->
    <g style="fill: #dc2626" transform="translate(553.753398 133.045469) scale(0.085 -0.085)">
     <defs>
      <path id="DejaVuSans-Bold-4e" d="M 588 4666 
L 1931 4666 
L 3628 1466 
L 3628 4666 
L 4769 4666 
L 4769 0 
L 3425 0 
L 1728 3200 
L 1728 0 
L 588 0 
L 588 4666 
z
" transform="scale(0.015625)"/>
     </defs>
     <use xlink:href="#DejaVuSans-Bold-4e"/>
     <use xlink:href="#DejaVuSans-Bold-6f" x="83.691406"/>
    </g>
   </g>
   <g id="text_5">
    <g id="patch_20">
     <path d="M 292.128438 337.163203 
L 308.331563 337.163203 
Q 309.181563 337.163203 309.181563 336.313203 
L 309.181563 328.086797 
Q 309.181563 327.236797 308.331563 327.236797 
L 292.128438 327.236797 
Q 291.278437 327.236797 291.278437 328.086797 
L 291.278437 336.313203 
Q 291.278437 337.163203 292.128438 337.163203 
z
" style="fill: #ffffff; opacity: 0.9"/>
    </g>
    <!-- Yes -->
    <g style="fill: #059669" transform="translate(292.128438 334.545469) scale(0.085 -0.085)">
     <use xlink:href="#DejaVuSans-Bold-59"/>
     <use xlink:href="#DejaVuSans-Bold-65" x="63.287109"/>
     <use xlink:href="#DejaVuSans-Bold-73" x="131.109375"/>
    </g>
   </g>
   <g id="text_6">
    <g id="patch_21">
     <path d="M 703.253398 337.163203 
L 716.206602 337.163203 
Q 717.056602 337.163203 717.056602 336.313203 
L 717.056602 328.086797 
Q 717.056602 327.236797 716.206602 327.236797 
L 703.253398 327.236797 
Q 702.403398 327.236797 702.403398 328.086797 
L 702.403398 336.313203 
Q 702.403398 337.163203 703.253398 337.163203 
z
" style="fill: #ffffff; opacity: 0.9"/>
    </g>
    <!-- No -->
    <g style="fill: #dc2626" transform="translate(703.253398 334.545469) scale(0.085 -0.085)">
     <use xlink:href="#DejaVuSans-Bold-4e"/>
     <use xlink:href="#DejaVuSans-Bold-6f" x="83.691406"/>
    </g>
   </g>
   <g id="text_7">
    <g id="patch_22">
     <path d="M 272.628438 499.663203 
L 288.831563 499.663203 
Q 289.681563 499.663203 289.681563 498.813203 
L 289.681563 490.586797 
Q 289.681563 489.736797 288.831563 489.736797 
L 272.628438 489.736797 
Q 271.778437 489.736797 271.778437 490.586797 
L 271.778437 498.813203 
Q 271.778437 499.663203 272.628438 499.663203 
z
" style="fill: #ffffff; opacity: 0.9"/>
    </g>
    <!-- Yes -->
    <g style="fill: #2563eb" transform="translate(272.628438 497.045469) scale(0.085 -0.085)">
     <use xlink:href="#DejaVuSans-Bold-59"/>
     <use xlink:href="#DejaVuSans-Bold-65" x="63.287109"/>
     <use xlink:href="#DejaVuSans-Bold-73" x="131.109375"/>
    </g>
   </g>
   <g id="text_8">
    <g id="patch_23">
     <path d="M 64.628438 610.163203 
L 80.831563 610.163203 
Q 81.681563 610.163203 81.681563 609.313203 
L 81.681563 601.086797 
Q 81.681563 600.236797 80.831563 600.236797 
L 64.628438 600.236797 
Q 63.778438 600.236797 63.778438 601.086797 
L 63.778438 609.313203 
Q 63.778438 610.163203 64.628438 610.163203 
z
" style="fill: #ffffff; opacity: 0.9"/>
    </g>
    <!-- Yes -->
    <g style="fill: #2563eb" transform="translate(64.628438 607.545469) scale(0.085 -0.085)">
     <use xlink:href="#DejaVuSans-Bold-59"/>
     <use xlink:href="#DejaVuSans-Bold-65" x="63.287109"/>
     <use xlink:href="#DejaVuSans-Bold-73" x="131.109375"/>
    </g>
   </g>
   <g id="text_9">
    <g id="patch_24">
     <path d="M 300.253398 701.163203 
L 313.206602 701.163203 
Q 314.056602 701.163203 314.056602 700.313203 
L 314.056602 692.086797 
Q 314.056602 691.236797 313.206602 691.236797 
L 300.253398 691.236797 
Q 299.403398 691.236797 299.403398 692.086797 
L 299.403398 700.313203 
Q 299.403398 701.163203 300.253398 701.163203 
z
" style="fill: #ffffff; opacity: 0.9"/>
    </g>
    <!-- No -->
    <g style="fill: #7c3aed" transform="translate(300.253398 698.545469) scale(0.085 -0.085)">
     <use xlink:href="#DejaVuSans-Bold-4e"/>
     <use xlink:href="#DejaVuSans-Bold-6f" x="83.691406"/>
    </g>
   </g>
   <g id="text_10">
    <g id="patch_25">
     <path d="M 781.253398 499.663203 
L 794.206602 499.663203 
Q 795.056602 499.663203 795.056602 498.813203 
L 795.056602 490.586797 
Q 795.056602 489.736797 794.206602 489.736797 
L 781.253398 489.736797 
Q 780.403398 489.736797 780.403398 490.586797 
L 780.403398 498.813203 
Q 780.403398 499.663203 781.253398 499.663203 
z
" style="fill: #ffffff; opacity: 0.9"/>
    </g>
    <!-- No -->
    <g style="fill: #dc2626" transform="translate(781.253398 497.045469) scale(0.085 -0.085)">
     <use xlink:href="#DejaVuSans-Bold-4e"/>
     <use xlink:href="#DejaVuSans-Bold-6f" x="83.691406"/>
    </g>
   </g>
   <g id="text_11">
    <g id="patch_26">
     <path d="M 586.773008 662.163203 
L 624.686992 662.163203 
Q 625.536992 662.163203 625.536992 661.313203 
L 625.536992 653.086797 
Q 625.536992 652.236797 624.686992 652.236797 
L 586.773008 652.236797 
Q 585.923008 652.236797 585.923008 653.086797 
L 585.923008 661.313203 
Q 585.923008 662.163203 586.773008 662.163203 
z
" style="fill: #ffffff; opacity: 0.9"/>
    </g>
    <!-- 30 Days -->
    <g style="fill: #d97706" transform="translate(586.773008 659.479062) scale(0.085 -0.085)">
     <defs>
      <path id="DejaVuSans-Bold-33" d="M 2981 2516 
Q 3453 2394 3698 2092 
Q 3944 1791 3944 1325 
Q 3944 631 3412 270 
Q 2881 -91 1863 -91 
Q 1503 -91 1142 -33 
Q 781 25 428 141 
L 428 1069 
Q 766 900 1098 814 
Q 1431 728 1753 728 
Q 2231 728 2486 893 
Q 2741 1059 2741 1369 
Q 2741 1688 2480 1852 
Q 2219 2016 1709 2016 
L 1228 2016 
L 1228 2791 
L 1734 2791 
Q 2188 2791 2409 2933 
Q 2631 3075 2631 3366 
Q 2631 3634 2415 3781 
Q 2200 3928 1806 3928 
Q 1516 3928 1219 3862 
Q 922 3797 628 3669 
L 628 4550 
Q 984 4650 1334 4700 
Q 1684 4750 2022 4750 
Q 2931 4750 3382 4451 
Q 3834 4153 3834 3553 
Q 3834 3144 3618 2883 
Q 3403 2622 2981 2516 
z
" transform="scale(0.015625)"/>
      <path id="DejaVuSans-Bold-30" d="M 2944 2338 
Q 2944 3213 2780 3570 
Q 2616 3928 2228 3928 
Q 1841 3928 1675 3570 
Q 1509 3213 1509 2338 
Q 1509 1453 1675 1090 
Q 1841 728 2228 728 
Q 2613 728 2778 1090 
Q 2944 1453 2944 2338 
z
M 4147 2328 
Q 4147 1169 3647 539 
Q 3147 -91 2228 -91 
Q 1306 -91 806 539 
Q 306 1169 306 2328 
Q 306 3491 806 4120 
Q 1306 4750 2228 4750 
Q 3147 4750 3647 4120 
Q 4147 3491 4147 2328 
z
" transform="scale(0.015625)"/>
      <path id="DejaVuSans-Bold-44" d="M 1791 3756 
L 1791 909 
L 2222 909 
Q 2959 909 3348 1275 
Q 3738 1641 3738 2338 
Q 3738 3031 3350 3393 
Q 2963 3756 2222 3756 
L 1791 3756 
z
M 588 4666 
L 1856 4666 
Q 2919 4666 3439 4514 
Q 3959 4363 4331 4000 
Q 4659 3684 4818 3271 
Q 4978 2859 4978 2338 
Q 4978 1809 4818 1395 
Q 4659 981 4331 666 
Q 3956 303 3431 151 
Q 2906 0 1856 0 
L 588 0 
L 588 4666 
z
" transform="scale(0.015625)"/>
     </defs>
     <use xlink:href="#DejaVuSans-Bold-33"/>
     <use xlink:href="#DejaVuSans-Bold-30" x="69.580078"/>
     <use xlink:href="#DejaVuSans-Bold-20" x="139.160156"/>
     <use xlink:href="#DejaVuSans-Bold-44" x="173.974609"/>
     <use xlink:href="#DejaVuSans-Bold-61" x="256.982422"/>
     <use xlink:href="#DejaVuSans-Bold-79" x="321.337891"/>
     <use xlink:href="#DejaVuSans-Bold-73" x="386.523438"/>
    </g>
   </g>
   <g id="text_12">
    <g id="patch_27">
     <path d="M 849.180898 701.163203 
L 882.279102 701.163203 
Q 883.129102 701.163203 883.129102 700.313203 
L 883.129102 692.086797 
Q 883.129102 691.236797 882.279102 691.236797 
L 849.180898 691.236797 
Q 848.330898 691.236797 848.330898 692.086797 
L 848.330898 700.313203 
Q 848.330898 701.163203 849.180898 701.163203 
z
" style="fill: #ffffff; opacity: 0.9"/>
    </g>
    <!-- 31-180 -->
    <g style="fill: #ea580c" transform="translate(849.180898 698.545469) scale(0.085 -0.085)">
     <defs>
      <path id="DejaVuSans-Bold-31" d="M 750 831 
L 1813 831 
L 1813 3847 
L 722 3622 
L 722 4441 
L 1806 4666 
L 2950 4666 
L 2950 831 
L 4013 831 
L 4013 0 
L 750 0 
L 750 831 
z
" transform="scale(0.015625)"/>
      <path id="DejaVuSans-Bold-2d" d="M 347 2297 
L 2309 2297 
L 2309 1388 
L 347 1388 
L 347 2297 
z
" transform="scale(0.015625)"/>
      <path id="DejaVuSans-Bold-38" d="M 2228 2088 
Q 1891 2088 1709 1903 
Q 1528 1719 1528 1375 
Q 1528 1031 1709 848 
Q 1891 666 2228 666 
Q 2563 666 2741 848 
Q 2919 1031 2919 1375 
Q 2919 1722 2741 1905 
Q 2563 2088 2228 2088 
z
M 1350 2484 
Q 925 2613 709 2878 
Q 494 3144 494 3541 
Q 494 4131 934 4440 
Q 1375 4750 2228 4750 
Q 3075 4750 3515 4442 
Q 3956 4134 3956 3541 
Q 3956 3144 3739 2878 
Q 3522 2613 3097 2484 
Q 3572 2353 3814 2058 
Q 4056 1763 4056 1313 
Q 4056 619 3595 264 
Q 3134 -91 2228 -91 
Q 1319 -91 855 264 
Q 391 619 391 1313 
Q 391 1763 633 2058 
Q 875 2353 1350 2484 
z
M 1631 3419 
Q 1631 3141 1786 2991 
Q 1941 2841 2228 2841 
Q 2509 2841 2662 2991 
Q 2816 3141 2816 3419 
Q 2816 3697 2662 3845 
Q 2509 3994 2228 3994 
Q 1941 3994 1786 3844 
Q 1631 3694 1631 3419 
z
" transform="scale(0.015625)"/>
     </defs>
     <use xlink:href="#DejaVuSans-Bold-33"/>
     <use xlink:href="#DejaVuSans-Bold-31" x="69.580078"/>
     <use xlink:href="#DejaVuSans-Bold-2d" x="139.160156"/>
     <use xlink:href="#DejaVuSans-Bold-31" x="180.664062"/>
     <use xlink:href="#DejaVuSans-Bold-38" x="250.244141"/>
     <use xlink:href="#DejaVuSans-Bold-30" x="319.824219"/>
    </g>
   </g>
   <g id="text_13">
    <g id="patch_28">
     <path d="M 1022.25457 662.163203 
L 1073.20543 662.163203 
Q 1074.05543 662.163203 1074.05543 661.313203 
L 1074.05543 653.086797 
Q 1074.05543 652.236797 1073.20543 652.236797 
L 1022.25457 652.236797 
Q 1021.40457 652.236797 1021.40457 653.086797 
L 1021.40457 661.313203 
Q 1021.40457 662.163203 1022.25457 662.163203 
z
" style="fill: #ffffff; opacity: 0.9"/>
    </g>
    <!-- +180 Days -->
    <g style="fill: #dc2626" transform="translate(1022.25457 659.479062) scale(0.085 -0.085)">
     <defs>
      <path id="DejaVuSans-Bold-2b" d="M 3053 4013 
L 3053 2375 
L 4684 2375 
L 4684 1638 
L 3053 1638 
L 3053 0 
L 2309 0 
L 2309 1638 
L 678 1638 
L 678 2375 
L 2309 2375 
L 2309 4013 
L 3053 4013 
z
" transform="scale(0.015625)"/>
     </defs>
     <use xlink:href="#DejaVuSans-Bold-2b"/>
     <use xlink:href="#DejaVuSans-Bold-31" x="83.789062"/>
     <use xlink:href="#DejaVuSans-Bold-38" x="153.369141"/>
     <use xlink:href="#DejaVuSans-Bold-30" x="222.949219"/>
     <use xlink:href="#DejaVuSans-Bold-20" x="292.529297"/>
     <use xlink:href="#DejaVuSans-Bold-44" x="327.34375"/>
     <use xlink:href="#DejaVuSans-Bold-61" x="410.351562"/>
     <use xlink:href="#DejaVuSans-Bold-79" x="474.707031"/>
     <use xlink:href="#DejaVuSans-Bold-73" x="539.892578"/>
    </g>
   </g>
   <g id="patch_29">
    <path d="M 527.73 52.7 
L 641.48 104.7 
L 527.73 156.7 
L 413.98 104.7 
z
" clip-path="url(#p7eff8499fd)" style="fill: #eff6ff; stroke: #3b82f6; stroke-width: 1.5; stroke-linejoin: miter"/>
   </g>
   <g id="patch_30">
    <path d="M 40.23 145 
L 235.23 145 
Q 243.03 145 243.03 137.2 
L 243.03 72.2 
Q 243.03 64.4 235.23 64.4 
L 40.23 64.4 
Q 32.43 64.4 32.43 72.2 
L 32.43 137.2 
Q 32.43 145 40.23 145 
z
" clip-path="url(#p7eff8499fd)" style="fill: #f3f4f6; stroke-dasharray: 5.55,2.4; stroke-dashoffset: 0; stroke: #6b7280; stroke-width: 1.5; stroke-linejoin: miter"/>
   </g>
   <g id="patch_31">
    <path d="M 404.23 275 
L 651.23 275 
Q 659.03 275 659.03 267.2 
L 659.03 202.2 
Q 659.03 194.4 651.23 194.4 
L 404.23 194.4 
Q 396.43 194.4 396.43 202.2 
L 396.43 267.2 
Q 396.43 275 404.23 275 
z
" clip-path="url(#p7eff8499fd)" style="fill: #e0e7ff; stroke: #4f46e5; stroke-width: 2; stroke-linejoin: miter"/>
   </g>
   <g id="patch_32">
    <path d="M 527.73 299.7 
L 657.73 351.7 
L 527.73 403.7 
L 397.73 351.7 
z
" clip-path="url(#p7eff8499fd)" style="fill: #eff6ff; stroke: #3b82f6; stroke-width: 1.5; stroke-linejoin: miter"/>
   </g>
   <g id="patch_33">
    <path d="M 66.23 392 
L 274.23 392 
Q 282.03 392 282.03 384.2 
L 282.03 319.2 
Q 282.03 311.4 274.23 311.4 
L 66.23 311.4 
Q 58.43 311.4 58.43 319.2 
L 58.43 384.2 
Q 58.43 392 66.23 392 
z
" clip-path="url(#p7eff8499fd)" style="fill: #f3f4f6; stroke-dasharray: 5.55,2.4; stroke-dashoffset: 0; stroke: #9ca3af; stroke-width: 1.5; stroke-linejoin: miter"/>
   </g>
   <g id="patch_34">
    <path d="M 527.73 429.7 
L 673.98 481.7 
L 527.73 533.7 
L 381.48 481.7 
z
" clip-path="url(#p7eff8499fd)" style="fill: #eff6ff; stroke: #3b82f6; stroke-width: 1.5; stroke-linejoin: miter"/>
   </g>
   <g id="patch_35">
    <path d="M 267.73 572.7 
L 413.98 624.7 
L 267.73 676.7 
L 121.48 624.7 
z
" clip-path="url(#p7eff8499fd)" style="fill: #eff6ff; stroke: #3b82f6; stroke-width: 1.5; stroke-linejoin: miter"/>
   </g>
   <g id="patch_36">
    <path d="M 820.23 572.7 
L 966.48 624.7 
L 820.23 676.7 
L 673.98 624.7 
z
" clip-path="url(#p7eff8499fd)" style="fill: #eff6ff; stroke: #3b82f6; stroke-width: 1.5; stroke-linejoin: miter"/>
   </g>
   <g id="patch_37">
    <path d="M -44.27 1003 
L 124.73 1003 
Q 132.53 1003 132.53 995.2 
L 132.53 878.2 
Q 132.53 870.4 124.73 870.4 
L -44.27 870.4 
Q -52.07 870.4 -52.07 878.2 
L -52.07 995.2 
Q -52.07 1003 -44.27 1003 
z
" clip-path="url(#p7eff8499fd)" style="fill: #dbeafe; stroke: #2563eb; stroke-width: 2; stroke-linejoin: miter"/>
   </g>
   <g id="patch_38">
    <path d="M 183.23 1003 
L 352.23 1003 
Q 360.03 1003 360.03 995.2 
L 360.03 878.2 
Q 360.03 870.4 352.23 870.4 
L 183.23 870.4 
Q 175.43 870.4 175.43 878.2 
L 175.43 995.2 
Q 175.43 1003 183.23 1003 
z
" clip-path="url(#p7eff8499fd)" style="fill: #ede9fe; stroke: #7c3aed; stroke-width: 2; stroke-linejoin: miter"/>
   </g>
   <g id="patch_39">
    <path d="M 508.23 1003 
L 677.23 1003 
Q 685.03 1003 685.03 995.2 
L 685.03 878.2 
Q 685.03 870.4 677.23 870.4 
L 508.23 870.4 
Q 500.43 870.4 500.43 878.2 
L 500.43 995.2 
Q 500.43 1003 508.23 1003 
z
" clip-path="url(#p7eff8499fd)" style="fill: #fef3c7; stroke: #d97706; stroke-width: 2; stroke-linejoin: miter"/>
   </g>
   <g id="patch_40">
    <path d="M 735.73 1003 
L 904.73 1003 
Q 912.53 1003 912.53 995.2 
L 912.53 878.2 
Q 912.53 870.4 904.73 870.4 
L 735.73 870.4 
Q 727.93 870.4 727.93 878.2 
L 727.93 995.2 
Q 727.93 1003 735.73 1003 
z
" clip-path="url(#p7eff8499fd)" style="fill: #ffedd5; stroke: #ea580c; stroke-width: 2; stroke-linejoin: miter"/>
   </g>
   <g id="patch_41">
    <path d="M 963.23 1003 
L 1132.23 1003 
Q 1140.03 1003 1140.03 995.2 
L 1140.03 878.2 
Q 1140.03 870.4 1132.23 870.4 
L 963.23 870.4 
Q 955.43 870.4 955.43 878.2 
L 955.43 995.2 
Q 955.43 1003 963.23 1003 
z
" clip-path="url(#p7eff8499fd)" style="fill: #fee2e2; stroke: #dc2626; stroke-width: 2; stroke-linejoin: miter"/>
   </g>
   <g id="text_14">
    <!-- Is Enterprise? -->
    <g style="fill: #1e3a5f" transform="translate(493.687031 107.459375) scale(0.1 -0.1)">
     <defs>
      <path id="DejaVuSans-49" d="M 628 4666 
L 1259 4666 
L 1259 0 
L 628 0 
L 628 4666 
z
" transform="scale(0.015625)"/>
      <path id="DejaVuSans-73" d="M 2834 3397 
L 2834 2853 
Q 2591 2978 2328 3040 
Q 2066 3103 1784 3103 
Q 1356 3103 1142 2972 
Q 928 2841 928 2578 
Q 928 2378 1081 2264 
Q 1234 2150 1697 2047 
L 1894 2003 
Q 2506 1872 2764 1633 
Q 3022 1394 3022 966 
Q 3022 478 2636 193 
Q 2250 -91 1575 -91 
Q 1294 -91 989 -36 
Q 684 19 347 128 
L 347 722 
Q 666 556 975 473 
Q 1284 391 1588 391 
Q 1994 391 2212 530 
Q 2431 669 2431 922 
Q 2431 1156 2273 1281 
Q 2116 1406 1581 1522 
L 1381 1569 
Q 847 1681 609 1914 
Q 372 2147 372 2553 
Q 372 3047 722 3315 
Q 1072 3584 1716 3584 
Q 2034 3584 2315 3537 
Q 2597 3491 2834 3397 
z
" transform="scale(0.015625)"/>
      <path id="DejaVuSans-20" transform="scale(0.015625)"/>
      <path id="DejaVuSans-45" d="M 628 4666 
L 3578 4666 
L 3578 4134 
L 1259 4134 
L 1259 2753 
L 3481 2753 
L 3481 2222 
L 1259 2222 
L 1259 531 
L 3634 531 
L 3634 0 
L 628 0 
L 628 4666 
z
" transform="scale(0.015625)"/>
      <path id="DejaVuSans-6e" d="M 3513 2113 
L 3513 0 
L 2938 0 
L 2938 2094 
Q 2938 2591 2744 2837 
Q 2550 3084 2163 3084 
Q 1697 3084 1428 2787 
Q 1159 2491 1159 1978 
L 1159 0 
L 581 0 
L 581 3500 
L 1159 3500 
L 1159 2956 
Q 1366 3272 1645 3428 
Q 1925 3584 2291 3584 
Q 2894 3584 3203 3211 
Q 3513 2838 3513 2113 
z
" transform="scale(0.015625)"/>
      <path id="DejaVuSans-74" d="M 1172 4494 
L 1172 3500 
L 2356 3500 
L 2356 3053 
L 1172 3053 
L 1172 1153 
Q 1172 725 1289 603 
Q 1406 481 1766 481 
L 2356 481 
L 2356 0 
L 1766 0 
Q 1100 0 847 248 
Q 594 497 594 1153 
L 594 3053 
L 172 3053 
L 172 3500 
L 594 3500 
L 594 4494 
L 1172 4494 
z
" transform="scale(0.015625)"/>
      <path id="DejaVuSans-65" d="M 3597 1894 
L 3597 1613 
L 953 1613 
Q 991 1019 1311 708 
Q 1631 397 2203 397 
Q 2534 397 2845 478 
Q 3156 559 3463 722 
L 3463 178 
Q 3153 47 2828 -22 
Q 2503 -91 2169 -91 
Q 1331 -91 842 396 
Q 353 884 353 1716 
Q 353 2575 817 3079 
Q 1281 3584 2069 3584 
Q 2775 3584 3186 3129 
Q 3597 2675 3597 1894 
z
M 3022 2063 
Q 3016 2534 2758 2815 
Q 2500 3097 2075 3097 
Q 1594 3097 1305 2825 
Q 1016 2553 972 2059 
L 3022 2063 
z
" transform="scale(0.015625)"/>
      <path id="DejaVuSans-72" d="M 2631 2963 
Q 2534 3019 2420 3045 
Q 2306 3072 2169 3072 
Q 1681 3072 1420 2755 
Q 1159 2438 1159 1844 
L 1159 0 
L 581 0 
L 581 3500 
L 1159 3500 
L 1159 2956 
Q 1341 3275 1631 3429 
Q 1922 3584 2338 3584 
Q 2397 3584 2469 3576 
Q 2541 3569 2628 3553 
L 2631 2963 
z
" transform="scale(0.015625)"/>
      <path id="DejaVuSans-70" d="M 1159 525 
L 1159 -1331 
L 581 -1331 
L 581 3500 
L 1159 3500 
L 1159 2969 
Q 1341 3281 1617 3432 
Q 1894 3584 2278 3584 
Q 2916 3584 3314 3078 
Q 3713 2572 3713 1747 
Q 3713 922 3314 415 
Q 2916 -91 2278 -91 
Q 1894 -91 1617 61 
Q 1341 213 1159 525 
z
M 3116 1747 
Q 3116 2381 2855 2742 
Q 2594 3103 2138 3103 
Q 1681 3103 1420 2742 
Q 1159 2381 1159 1747 
Q 1159 1113 1420 752 
Q 1681 391 2138 391 
Q 2594 391 2855 752 
Q 3116 1113 3116 1747 
z
" transform="scale(0.015625)"/>
      <path id="DejaVuSans-69" d="M 603 3500 
L 1178 3500 
L 1178 0 
L 603 0 
L 603 3500 
z
M 603 4863 
L 1178 4863 
L 1178 4134 
L 603 4134 
L 603 4863 
z
" transform="scale(0.015625)"/>
      <path id="DejaVuSans-3f" d="M 1222 794 
L 1856 794 
L 1856 0 
L 1222 0 
L 1222 794 
z
M 1838 1253 
L 1241 1253 
L 1241 1734 
Q 1241 2050 1328 2253 
Q 1416 2456 1697 2725 
L 1978 3003 
Q 2156 3169 2236 3316 
Q 2316 3463 2316 3616 
Q 2316 3894 2111 4066 
Q 1906 4238 1569 4238 
Q 1322 4238 1042 4128 
Q 763 4019 459 3809 
L 459 4397 
Q 753 4575 1054 4662 
Q 1356 4750 1678 4750 
Q 2253 4750 2601 4447 
Q 2950 4144 2950 3647 
Q 2950 3409 2837 3195 
Q 2725 2981 2444 2713 
L 2169 2444 
Q 2022 2297 1961 2214 
Q 1900 2131 1875 2053 
Q 1856 1988 1847 1894 
Q 1838 1800 1838 1638 
L 1838 1253 
z
" transform="scale(0.015625)"/>
     </defs>
     <use xlink:href="#DejaVuSans-49"/>
     <use xlink:href="#DejaVuSans-73" x="29.492188"/>
     <use xlink:href="#DejaVuSans-20" x="81.591797"/>
     <use xlink:href="#DejaVuSans-45" x="113.378906"/>
     <use xlink:href="#DejaVuSans-6e" x="176.5625"/>
     <use xlink:href="#DejaVuSans-74" x="239.941406"/>
     <use xlink:href="#DejaVuSans-65" x="279.150391"/>
     <use xlink:href="#DejaVuSans-72" x="340.673828"/>
     <use xlink:href="#DejaVuSans-70" x="381.787109"/>
     <use xlink:href="#DejaVuSans-72" x="445.263672"/>
     <use xlink:href="#DejaVuSans-69" x="486.376953"/>
     <use xlink:href="#DejaVuSans-73" x="514.160156"/>
     <use xlink:href="#DejaVuSans-65" x="566.259766"/>
     <use xlink:href="#DejaVuSans-3f" x="627.783203"/>
    </g>
   </g>
   <g id="text_15">
    <!-- Sales / Account -->
    <g style="fill: #1f2937" transform="translate(98.935078 92.359266) scale(0.09 -0.09)">
     <defs>
      <path id="DejaVuSans-Bold-53" d="M 3834 4519 
L 3834 3531 
Q 3450 3703 3084 3790 
Q 2719 3878 2394 3878 
Q 1963 3878 1756 3759 
Q 1550 3641 1550 3391 
Q 1550 3203 1689 3098 
Q 1828 2994 2194 2919 
L 2706 2816 
Q 3484 2659 3812 2340 
Q 4141 2022 4141 1434 
Q 4141 663 3683 286 
Q 3225 -91 2284 -91 
Q 1841 -91 1394 -6 
Q 947 78 500 244 
L 500 1259 
Q 947 1022 1364 901 
Q 1781 781 2169 781 
Q 2563 781 2772 912 
Q 2981 1044 2981 1288 
Q 2981 1506 2839 1625 
Q 2697 1744 2272 1838 
L 1806 1941 
Q 1106 2091 782 2419 
Q 459 2747 459 3303 
Q 459 4000 909 4375 
Q 1359 4750 2203 4750 
Q 2588 4750 2994 4692 
Q 3400 4634 3834 4519 
z
" transform="scale(0.015625)"/>
      <path id="DejaVuSans-Bold-2f" d="M 1644 4666 
L 2338 4666 
L 691 -594 
L 0 -594 
L 1644 4666 
z
" transform="scale(0.015625)"/>
      <path id="DejaVuSans-Bold-41" d="M 3419 850 
L 1538 850 
L 1241 0 
L 31 0 
L 1759 4666 
L 3194 4666 
L 4922 0 
L 3713 0 
L 3419 850 
z
M 1838 1716 
L 3116 1716 
L 2478 3572 
L 1838 1716 
z
" transform="scale(0.015625)"/>
      <path id="DejaVuSans-Bold-75" d="M 500 1363 
L 500 3500 
L 1625 3500 
L 1625 3150 
Q 1625 2866 1622 2436 
Q 1619 2006 1619 1863 
Q 1619 1441 1641 1255 
Q 1663 1069 1716 984 
Q 1784 875 1895 815 
Q 2006 756 2150 756 
Q 2500 756 2700 1025 
Q 2900 1294 2900 1772 
L 2900 3500 
L 4019 3500 
L 4019 0 
L 2900 0 
L 2900 506 
Q 2647 200 2364 54 
Q 2081 -91 1741 -91 
Q 1134 -91 817 281 
Q 500 653 500 1363 
z
" transform="scale(0.015625)"/>
     </defs>
     <use xlink:href="#DejaVuSans-Bold-53"/>
     <use xlink:href="#DejaVuSans-Bold-61" x="72.021484"/>
     <use xlink:href="#DejaVuSans-Bold-6c" x="139.501953"/>
     <use xlink:href="#DejaVuSans-Bold-65" x="173.779297"/>
     <use xlink:href="#DejaVuSans-Bold-73" x="241.601562"/>
     <use xlink:href="#DejaVuSans-Bold-20" x="301.123047"/>
     <use xlink:href="#DejaVuSans-Bold-2f" x="335.9375"/>
     <use xlink:href="#DejaVuSans-Bold-20" x="372.460938"/>
     <use xlink:href="#DejaVuSans-Bold-41" x="407.275391"/>
     <use xlink:href="#DejaVuSans-Bold-63" x="484.667969"/>
     <use xlink:href="#DejaVuSans-Bold-63" x="543.945312"/>
     <use xlink:href="#DejaVuSans-Bold-6f" x="603.222656"/>
     <use xlink:href="#DejaVuSans-Bold-75" x="671.923828"/>
     <use xlink:href="#DejaVuSans-Bold-6e" x="743.115234"/>
     <use xlink:href="#DejaVuSans-Bold-74" x="814.306641"/>
    </g>
    <!-- Management -->
    <g style="fill: #1f2937" transform="translate(104.605781 102.437297) scale(0.09 -0.09)">
     <defs>
      <path id="DejaVuSans-Bold-4d" d="M 588 4666 
L 2119 4666 
L 3181 2169 
L 4250 4666 
L 5778 4666 
L 5778 0 
L 4641 0 
L 4641 3413 
L 3566 897 
L 2803 897 
L 1728 3413 
L 1728 0 
L 588 0 
L 588 4666 
z
" transform="scale(0.015625)"/>
      <path id="DejaVuSans-Bold-67" d="M 2919 594 
Q 2688 288 2409 144 
Q 2131 0 1766 0 
Q 1125 0 706 504 
Q 288 1009 288 1791 
Q 288 2575 706 3076 
Q 1125 3578 1766 3578 
Q 2131 3578 2409 3434 
Q 2688 3291 2919 2981 
L 2919 3500 
L 4044 3500 
L 4044 353 
Q 4044 -491 3511 -936 
Q 2978 -1381 1966 -1381 
Q 1638 -1381 1331 -1331 
Q 1025 -1281 716 -1178 
L 716 -306 
Q 1009 -475 1290 -558 
Q 1572 -641 1856 -641 
Q 2406 -641 2662 -400 
Q 2919 -159 2919 353 
L 2919 594 
z
M 2181 2772 
Q 1834 2772 1640 2515 
Q 1447 2259 1447 1791 
Q 1447 1309 1634 1061 
Q 1822 813 2181 813 
Q 2531 813 2725 1069 
Q 2919 1325 2919 1791 
Q 2919 2259 2725 2515 
Q 2531 2772 2181 2772 
z
" transform="scale(0.015625)"/>
     </defs>
     <use xlink:href="#DejaVuSans-Bold-4d"/>
     <use xlink:href="#DejaVuSans-Bold-61" x="99.511719"/>
     <use xlink:href="#DejaVuSans-Bold-6e" x="166.992188"/>
     <use xlink:href="#DejaVuSans-Bold-61" x="238.183594"/>
     <use xlink:href="#DejaVuSans-Bold-67" x="305.664062"/>
     <use xlink:href="#DejaVuSans-Bold-65" x="377.246094"/>
     <use xlink:href="#DejaVuSans-Bold-6d" x="445.068359"/>
     <use xlink:href="#DejaVuSans-Bold-65" x="549.267578"/>
     <use xlink:href="#DejaVuSans-Bold-6e" x="617.089844"/>
     <use xlink:href="#DejaVuSans-Bold-74" x="688.28125"/>
    </g>
   </g>
   <g id="text_16">
    <!-- ~1K -->
    <g style="fill: #6b7280" transform="translate(126.187031 121.759375) scale(0.1 -0.1)">
     <defs>
      <path id="DejaVuSans-Bold-7e" d="M 4684 2656 
L 4684 1894 
Q 4353 1644 4073 1536 
Q 3794 1428 3494 1428 
Q 3159 1428 2713 1609 
Q 2669 1628 2644 1638 
Q 2622 1647 2575 1666 
Q 2091 1856 1797 1856 
Q 1522 1856 1253 1736 
Q 984 1616 678 1356 
L 678 2119 
Q 1013 2369 1291 2476 
Q 1569 2584 1869 2584 
Q 2203 2584 2650 2403 
Q 2697 2384 2719 2375 
Q 2741 2366 2788 2347 
Q 3272 2156 3566 2156 
Q 3834 2156 4098 2273 
Q 4363 2391 4684 2656 
z
" transform="scale(0.015625)"/>
      <path id="DejaVuSans-Bold-4b" d="M 588 4666 
L 1791 4666 
L 1791 2963 
L 3525 4666 
L 4922 4666 
L 2675 2456 
L 5153 0 
L 3647 0 
L 1791 1838 
L 1791 0 
L 588 0 
L 588 4666 
z
" transform="scale(0.015625)"/>
     </defs>
     <use xlink:href="#DejaVuSans-Bold-7e"/>
     <use xlink:href="#DejaVuSans-Bold-31" x="83.789062"/>
     <use xlink:href="#DejaVuSans-Bold-4b" x="153.369141"/>
    </g>
   </g>
   <g id="text_17">
    <!-- Active Subscribers -->
    <g style="fill: #1f2937" transform="translate(469.870859 227.985312) scale(0.11 -0.11)">
     <defs>
      <path id="DejaVuSans-Bold-76" d="M 97 3500 
L 1216 3500 
L 2088 1081 
L 2956 3500 
L 4078 3500 
L 2700 0 
L 1472 0 
L 97 3500 
z
" transform="scale(0.015625)"/>
      <path id="DejaVuSans-Bold-62" d="M 2400 722 
Q 2759 722 2948 984 
Q 3138 1247 3138 1747 
Q 3138 2247 2948 2509 
Q 2759 2772 2400 2772 
Q 2041 2772 1848 2508 
Q 1656 2244 1656 1747 
Q 1656 1250 1848 986 
Q 2041 722 2400 722 
z
M 1656 2988 
Q 1888 3294 2169 3439 
Q 2450 3584 2816 3584 
Q 3463 3584 3878 3070 
Q 4294 2556 4294 1747 
Q 4294 938 3878 423 
Q 3463 -91 2816 -91 
Q 2450 -91 2169 54 
Q 1888 200 1656 506 
L 1656 0 
L 538 0 
L 538 4863 
L 1656 4863 
L 1656 2988 
z
" transform="scale(0.015625)"/>
     </defs>
     <use xlink:href="#DejaVuSans-Bold-41"/>
     <use xlink:href="#DejaVuSans-Bold-63" x="77.392578"/>
     <use xlink:href="#DejaVuSans-Bold-74" x="136.669922"/>
     <use xlink:href="#DejaVuSans-Bold-69" x="184.472656"/>
     <use xlink:href="#DejaVuSans-Bold-76" x="218.75"/>
     <use xlink:href="#DejaVuSans-Bold-65" x="283.935547"/>
     <use xlink:href="#DejaVuSans-Bold-20" x="351.757812"/>
     <use xlink:href="#DejaVuSans-Bold-53" x="386.572266"/>
     <use xlink:href="#DejaVuSans-Bold-75" x="458.59375"/>
     <use xlink:href="#DejaVuSans-Bold-62" x="529.785156"/>
     <use xlink:href="#DejaVuSans-Bold-73" x="601.367188"/>
     <use xlink:href="#DejaVuSans-Bold-63" x="660.888672"/>
     <use xlink:href="#DejaVuSans-Bold-72" x="720.166016"/>
     <use xlink:href="#DejaVuSans-Bold-69" x="769.482422"/>
     <use xlink:href="#DejaVuSans-Bold-62" x="803.759766"/>
     <use xlink:href="#DejaVuSans-Bold-65" x="875.341797"/>
     <use xlink:href="#DejaVuSans-Bold-72" x="943.164062"/>
     <use xlink:href="#DejaVuSans-Bold-73" x="992.480469"/>
    </g>
   </g>
   <g id="text_18">
    <!-- 10K -->
    <g style="fill: #4f46e5" transform="translate(514.731562 252.31125) scale(0.12 -0.12)">
     <use xlink:href="#DejaVuSans-Bold-31"/>
     <use xlink:href="#DejaVuSans-Bold-30" x="69.580078"/>
     <use xlink:href="#DejaVuSans-Bold-4b" x="139.160156"/>
    </g>
   </g>
   <g id="text_19">
    <!-- Subscribed this -->
    <g style="fill: #1e3a5f" transform="translate(493.122891 349.144422) scale(0.09 -0.09)">
     <defs>
      <path id="DejaVuSans-53" d="M 3425 4513 
L 3425 3897 
Q 3066 4069 2747 4153 
Q 2428 4238 2131 4238 
Q 1616 4238 1336 4038 
Q 1056 3838 1056 3469 
Q 1056 3159 1242 3001 
Q 1428 2844 1947 2747 
L 2328 2669 
Q 3034 2534 3370 2195 
Q 3706 1856 3706 1288 
Q 3706 609 3251 259 
Q 2797 -91 1919 -91 
Q 1588 -91 1214 -16 
Q 841 59 441 206 
L 441 856 
Q 825 641 1194 531 
Q 1563 422 1919 422 
Q 2459 422 2753 634 
Q 3047 847 3047 1241 
Q 3047 1584 2836 1778 
Q 2625 1972 2144 2069 
L 1759 2144 
Q 1053 2284 737 2584 
Q 422 2884 422 3419 
Q 422 4038 858 4394 
Q 1294 4750 2059 4750 
Q 2388 4750 2728 4690 
Q 3069 4631 3425 4513 
z
" transform="scale(0.015625)"/>
      <path id="DejaVuSans-75" d="M 544 1381 
L 544 3500 
L 1119 3500 
L 1119 1403 
Q 1119 906 1312 657 
Q 1506 409 1894 409 
Q 2359 409 2629 706 
Q 2900 1003 2900 1516 
L 2900 3500 
L 3475 3500 
L 3475 0 
L 2900 0 
L 2900 538 
Q 2691 219 2414 64 
Q 2138 -91 1772 -91 
Q 1169 -91 856 284 
Q 544 659 544 1381 
z
M 1991 3584 
L 1991 3584 
z
" transform="scale(0.015625)"/>
      <path id="DejaVuSans-62" d="M 3116 1747 
Q 3116 2381 2855 2742 
Q 2594 3103 2138 3103 
Q 1681 3103 1420 2742 
Q 1159 2381 1159 1747 
Q 1159 1113 1420 752 
Q 1681 391 2138 391 
Q 2594 391 2855 752 
Q 3116 1113 3116 1747 
z
M 1159 2969 
Q 1341 3281 1617 3432 
Q 1894 3584 2278 3584 
Q 2916 3584 3314 3078 
Q 3713 2572 3713 1747 
Q 3713 922 3314 415 
Q 2916 -91 2278 -91 
Q 1894 -91 1617 61 
Q 1341 213 1159 525 
L 1159 0 
L 581 0 
L 581 4863 
L 1159 4863 
L 1159 2969 
z
" transform="scale(0.015625)"/>
      <path id="DejaVuSans-63" d="M 3122 3366 
L 3122 2828 
Q 2878 2963 2633 3030 
Q 2388 3097 2138 3097 
Q 1578 3097 1268 2742 
Q 959 2388 959 1747 
Q 959 1106 1268 751 
Q 1578 397 2138 397 
Q 2388 397 2633 464 
Q 2878 531 3122 666 
L 3122 134 
Q 2881 22 2623 -34 
Q 2366 -91 2075 -91 
Q 1284 -91 818 406 
Q 353 903 353 1747 
Q 353 2603 823 3093 
Q 1294 3584 2113 3584 
Q 2378 3584 2631 3529 
Q 2884 3475 3122 3366 
z
" transform="scale(0.015625)"/>
      <path id="DejaVuSans-64" d="M 2906 2969 
L 2906 4863 
L 3481 4863 
L 3481 0 
L 2906 0 
L 2906 525 
Q 2725 213 2448 61 
Q 2172 -91 1784 -91 
Q 1150 -91 751 415 
Q 353 922 353 1747 
Q 353 2572 751 3078 
Q 1150 3584 1784 3584 
Q 2172 3584 2448 3432 
Q 2725 3281 2906 2969 
z
M 947 1747 
Q 947 1113 1208 752 
Q 1469 391 1925 391 
Q 2381 391 2643 752 
Q 2906 1113 2906 1747 
Q 2906 2381 2643 2742 
Q 2381 3103 1925 3103 
Q 1469 3103 1208 2742 
Q 947 2381 947 1747 
z
" transform="scale(0.015625)"/>
      <path id="DejaVuSans-68" d="M 3513 2113 
L 3513 0 
L 2938 0 
L 2938 2094 
Q 2938 2591 2744 2837 
Q 2550 3084 2163 3084 
Q 1697 3084 1428 2787 
Q 1159 2491 1159 1978 
L 1159 0 
L 581 0 
L 581 4863 
L 1159 4863 
L 1159 2956 
Q 1366 3272 1645 3428 
Q 1925 3584 2291 3584 
Q 2894 3584 3203 3211 
Q 3513 2838 3513 2113 
z
" transform="scale(0.015625)"/>
     </defs>
     <use xlink:href="#DejaVuSans-53"/>
     <use xlink:href="#DejaVuSans-75" x="63.476562"/>
     <use xlink:href="#DejaVuSans-62" x="126.855469"/>
     <use xlink:href="#DejaVuSans-73" x="190.332031"/>
     <use xlink:href="#DejaVuSans-63" x="242.431641"/>
     <use xlink:href="#DejaVuSans-72" x="297.412109"/>
     <use xlink:href="#DejaVuSans-69" x="338.525391"/>
     <use xlink:href="#DejaVuSans-62" x="366.308594"/>
     <use xlink:href="#DejaVuSans-65" x="429.785156"/>
     <use xlink:href="#DejaVuSans-64" x="491.308594"/>
     <use xlink:href="#DejaVuSans-20" x="554.785156"/>
     <use xlink:href="#DejaVuSans-74" x="586.572266"/>
     <use xlink:href="#DejaVuSans-68" x="625.78125"/>
     <use xlink:href="#DejaVuSans-69" x="689.160156"/>
     <use xlink:href="#DejaVuSans-73" x="716.943359"/>
    </g>
    <!-- month? -->
    <g style="fill: #1e3a5f" transform="translate(510.736875 359.222453) scale(0.09 -0.09)">
     <defs>
      <path id="DejaVuSans-6d" d="M 3328 2828 
Q 3544 3216 3844 3400 
Q 4144 3584 4550 3584 
Q 5097 3584 5394 3201 
Q 5691 2819 5691 2113 
L 5691 0 
L 5113 0 
L 5113 2094 
Q 5113 2597 4934 2840 
Q 4756 3084 4391 3084 
Q 3944 3084 3684 2787 
Q 3425 2491 3425 1978 
L 3425 0 
L 2847 0 
L 2847 2094 
Q 2847 2600 2669 2842 
Q 2491 3084 2119 3084 
Q 1678 3084 1418 2786 
Q 1159 2488 1159 1978 
L 1159 0 
L 581 0 
L 581 3500 
L 1159 3500 
L 1159 2956 
Q 1356 3278 1631 3431 
Q 1906 3584 2284 3584 
Q 2666 3584 2933 3390 
Q 3200 3197 3328 2828 
z
" transform="scale(0.015625)"/>
      <path id="DejaVuSans-6f" d="M 1959 3097 
Q 1497 3097 1228 2736 
Q 959 2375 959 1747 
Q 959 1119 1226 758 
Q 1494 397 1959 397 
Q 2419 397 2687 759 
Q 2956 1122 2956 1747 
Q 2956 2369 2687 2733 
Q 2419 3097 1959 3097 
z
M 1959 3584 
Q 2709 3584 3137 3096 
Q 3566 2609 3566 1747 
Q 3566 888 3137 398 
Q 2709 -91 1959 -91 
Q 1206 -91 779 398 
Q 353 888 353 1747 
Q 353 2609 779 3096 
Q 1206 3584 1959 3584 
z
" transform="scale(0.015625)"/>
     </defs>
     <use xlink:href="#DejaVuSans-6d"/>
     <use xlink:href="#DejaVuSans-6f" x="97.412109"/>
     <use xlink:href="#DejaVuSans-6e" x="158.59375"/>
     <use xlink:href="#DejaVuSans-74" x="221.972656"/>
     <use xlink:href="#DejaVuSans-68" x="261.181641"/>
     <use xlink:href="#DejaVuSans-3f" x="324.560547"/>
    </g>
   </g>
   <g id="text_20">
    <!-- New Subscriber -->
    <g style="fill: #1f2937" transform="translate(130.422578 339.359266) scale(0.09 -0.09)">
     <use xlink:href="#DejaVuSans-Bold-4e"/>
     <use xlink:href="#DejaVuSans-Bold-65" x="83.691406"/>
     <use xlink:href="#DejaVuSans-Bold-77" x="151.513672"/>
     <use xlink:href="#DejaVuSans-Bold-20" x="243.896484"/>
     <use xlink:href="#DejaVuSans-Bold-53" x="278.710938"/>
     <use xlink:href="#DejaVuSans-Bold-75" x="350.732422"/>
     <use xlink:href="#DejaVuSans-Bold-62" x="421.923828"/>
     <use xlink:href="#DejaVuSans-Bold-73" x="493.505859"/>
     <use xlink:href="#DejaVuSans-Bold-63" x="553.027344"/>
     <use xlink:href="#DejaVuSans-Bold-72" x="612.304688"/>
     <use xlink:href="#DejaVuSans-Bold-69" x="661.621094"/>
     <use xlink:href="#DejaVuSans-Bold-62" x="695.898438"/>
     <use xlink:href="#DejaVuSans-Bold-65" x="767.480469"/>
     <use xlink:href="#DejaVuSans-Bold-72" x="835.302734"/>
    </g>
    <!-- Onboarding Flow -->
    <g style="fill: #1f2937" transform="translate(127.011719 349.437297) scale(0.09 -0.09)">
     <defs>
      <path id="DejaVuSans-Bold-4f" d="M 2719 3878 
Q 2169 3878 1866 3472 
Q 1563 3066 1563 2328 
Q 1563 1594 1866 1187 
Q 2169 781 2719 781 
Q 3272 781 3575 1187 
Q 3878 1594 3878 2328 
Q 3878 3066 3575 3472 
Q 3272 3878 2719 3878 
z
M 2719 4750 
Q 3844 4750 4481 4106 
Q 5119 3463 5119 2328 
Q 5119 1197 4481 553 
Q 3844 -91 2719 -91 
Q 1597 -91 958 553 
Q 319 1197 319 2328 
Q 319 3463 958 4106 
Q 1597 4750 2719 4750 
z
" transform="scale(0.015625)"/>
      <path id="DejaVuSans-Bold-64" d="M 2919 2988 
L 2919 4863 
L 4044 4863 
L 4044 0 
L 2919 0 
L 2919 506 
Q 2688 197 2409 53 
Q 2131 -91 1766 -91 
Q 1119 -91 703 423 
Q 288 938 288 1747 
Q 288 2556 703 3070 
Q 1119 3584 1766 3584 
Q 2128 3584 2408 3439 
Q 2688 3294 2919 2988 
z
M 2181 722 
Q 2541 722 2730 984 
Q 2919 1247 2919 1747 
Q 2919 2247 2730 2509 
Q 2541 2772 2181 2772 
Q 1825 2772 1636 2509 
Q 1447 2247 1447 1747 
Q 1447 1247 1636 984 
Q 1825 722 2181 722 
z
" transform="scale(0.015625)"/>
     </defs>
     <use xlink:href="#DejaVuSans-Bold-4f"/>
     <use xlink:href="#DejaVuSans-Bold-6e" x="85.009766"/>
     <use xlink:href="#DejaVuSans-Bold-62" x="156.201172"/>
     <use xlink:href="#DejaVuSans-Bold-6f" x="227.783203"/>
     <use xlink:href="#DejaVuSans-Bold-61" x="296.484375"/>
     <use xlink:href="#DejaVuSans-Bold-72" x="363.964844"/>
     <use xlink:href="#DejaVuSans-Bold-64" x="413.28125"/>
     <use xlink:href="#DejaVuSans-Bold-69" x="484.863281"/>
     <use xlink:href="#DejaVuSans-Bold-6e" x="519.140625"/>
     <use xlink:href="#DejaVuSans-Bold-67" x="590.332031"/>
     <use xlink:href="#DejaVuSans-Bold-20" x="661.914062"/>
     <use xlink:href="#DejaVuSans-Bold-46" x="696.728516"/>
     <use xlink:href="#DejaVuSans-Bold-6c" x="765.039062"/>
     <use xlink:href="#DejaVuSans-Bold-6f" x="799.316406"/>
     <use xlink:href="#DejaVuSans-Bold-77" x="868.017578"/>
    </g>
   </g>
   <g id="text_21">
    <!-- 0 (0%) -->
    <g style="fill: #9ca3af" transform="translate(153.778984 368.483437) scale(0.09 -0.09)">
     <defs>
      <path id="DejaVuSans-Bold-25" d="M 4959 1925 
Q 4738 1925 4616 1733 
Q 4494 1541 4494 1184 
Q 4494 825 4614 633 
Q 4734 441 4959 441 
Q 5184 441 5303 633 
Q 5422 825 5422 1184 
Q 5422 1541 5301 1733 
Q 5181 1925 4959 1925 
z
M 4959 2450 
Q 5541 2450 5875 2112 
Q 6209 1775 6209 1184 
Q 6209 594 5875 251 
Q 5541 -91 4959 -91 
Q 4378 -91 4042 251 
Q 3706 594 3706 1184 
Q 3706 1772 4042 2111 
Q 4378 2450 4959 2450 
z
M 2094 -91 
L 1403 -91 
L 4319 4750 
L 5013 4750 
L 2094 -91 
z
M 1453 4750 
Q 2034 4750 2367 4411 
Q 2700 4072 2700 3481 
Q 2700 2891 2367 2550 
Q 2034 2209 1453 2209 
Q 872 2209 539 2550 
Q 206 2891 206 3481 
Q 206 4072 539 4411 
Q 872 4750 1453 4750 
z
M 1453 4225 
Q 1228 4225 1106 4031 
Q 984 3838 984 3481 
Q 984 3122 1106 2926 
Q 1228 2731 1453 2731 
Q 1678 2731 1798 2926 
Q 1919 3122 1919 3481 
Q 1919 3838 1797 4031 
Q 1675 4225 1453 4225 
z
" transform="scale(0.015625)"/>
     </defs>
     <use xlink:href="#DejaVuSans-Bold-30"/>
     <use xlink:href="#DejaVuSans-Bold-20" x="69.580078"/>
     <use xlink:href="#DejaVuSans-Bold-28" x="104.394531"/>
     <use xlink:href="#DejaVuSans-Bold-30" x="150.097656"/>
     <use xlink:href="#DejaVuSans-Bold-25" x="219.677734"/>
     <use xlink:href="#DejaVuSans-Bold-29" x="319.873047"/>
    </g>
   </g>
   <g id="text_22">
    <!-- Has session in last -->
    <g style="fill: #1e3a5f" transform="translate(486.078281 479.144422) scale(0.09 -0.09)">
     <defs>
      <path id="DejaVuSans-48" d="M 628 4666 
L 1259 4666 
L 1259 2753 
L 3553 2753 
L 3553 4666 
L 4184 4666 
L 4184 0 
L 3553 0 
L 3553 2222 
L 1259 2222 
L 1259 0 
L 628 0 
L 628 4666 
z
" transform="scale(0.015625)"/>
      <path id="DejaVuSans-61" d="M 2194 1759 
Q 1497 1759 1228 1600 
Q 959 1441 959 1056 
Q 959 750 1161 570 
Q 1363 391 1709 391 
Q 2188 391 2477 730 
Q 2766 1069 2766 1631 
L 2766 1759 
L 2194 1759 
z
M 3341 1997 
L 3341 0 
L 2766 0 
L 2766 531 
Q 2569 213 2275 61 
Q 1981 -91 1556 -91 
Q 1019 -91 701 211 
Q 384 513 384 1019 
Q 384 1609 779 1909 
Q 1175 2209 1959 2209 
L 2766 2209 
L 2766 2266 
Q 2766 2663 2505 2880 
Q 2244 3097 1772 3097 
Q 1472 3097 1187 3025 
Q 903 2953 641 2809 
L 641 3341 
Q 956 3463 1253 3523 
Q 1550 3584 1831 3584 
Q 2591 3584 2966 3190 
Q 3341 2797 3341 1997 
z
" transform="scale(0.015625)"/>
      <path id="DejaVuSans-6c" d="M 603 4863 
L 1178 4863 
L 1178 0 
L 603 0 
L 603 4863 
z
" transform="scale(0.015625)"/>
     </defs>
     <use xlink:href="#DejaVuSans-48"/>
     <use xlink:href="#DejaVuSans-61" x="75.195312"/>
     <use xlink:href="#DejaVuSans-73" x="136.474609"/>
     <use xlink:href="#DejaVuSans-20" x="188.574219"/>
     <use xlink:href="#DejaVuSans-73" x="220.361328"/>
     <use xlink:href="#DejaVuSans-65" x="272.460938"/>
     <use xlink:href="#DejaVuSans-73" x="333.984375"/>
     <use xlink:href="#DejaVuSans-73" x="386.083984"/>
     <use xlink:href="#DejaVuSans-69" x="438.183594"/>
     <use xlink:href="#DejaVuSans-6f" x="465.966797"/>
     <use xlink:href="#DejaVuSans-6e" x="527.148438"/>
     <use xlink:href="#DejaVuSans-20" x="590.527344"/>
     <use xlink:href="#DejaVuSans-69" x="622.314453"/>
     <use xlink:href="#DejaVuSans-6e" x="650.097656"/>
     <use xlink:href="#DejaVuSans-20" x="713.476562"/>
     <use xlink:href="#DejaVuSans-6c" x="745.263672"/>
     <use xlink:href="#DejaVuSans-61" x="773.046875"/>
     <use xlink:href="#DejaVuSans-73" x="834.326172"/>
     <use xlink:href="#DejaVuSans-74" x="886.425781"/>
    </g>
    <!-- 30 days? -->
    <g style="fill: #1e3a5f" transform="translate(507.562969 489.222453) scale(0.09 -0.09)">
     <defs>
      <path id="DejaVuSans-33" d="M 2597 2516 
Q 3050 2419 3304 2112 
Q 3559 1806 3559 1356 
Q 3559 666 3084 287 
Q 2609 -91 1734 -91 
Q 1441 -91 1130 -33 
Q 819 25 488 141 
L 488 750 
Q 750 597 1062 519 
Q 1375 441 1716 441 
Q 2309 441 2620 675 
Q 2931 909 2931 1356 
Q 2931 1769 2642 2001 
Q 2353 2234 1838 2234 
L 1294 2234 
L 1294 2753 
L 1863 2753 
Q 2328 2753 2575 2939 
Q 2822 3125 2822 3475 
Q 2822 3834 2567 4026 
Q 2313 4219 1838 4219 
Q 1578 4219 1281 4162 
Q 984 4106 628 3988 
L 628 4550 
Q 988 4650 1302 4700 
Q 1616 4750 1894 4750 
Q 2613 4750 3031 4423 
Q 3450 4097 3450 3541 
Q 3450 3153 3228 2886 
Q 3006 2619 2597 2516 
z
" transform="scale(0.015625)"/>
      <path id="DejaVuSans-30" d="M 2034 4250 
Q 1547 4250 1301 3770 
Q 1056 3291 1056 2328 
Q 1056 1369 1301 889 
Q 1547 409 2034 409 
Q 2525 409 2770 889 
Q 3016 1369 3016 2328 
Q 3016 3291 2770 3770 
Q 2525 4250 2034 4250 
z
M 2034 4750 
Q 2819 4750 3233 4129 
Q 3647 3509 3647 2328 
Q 3647 1150 3233 529 
Q 2819 -91 2034 -91 
Q 1250 -91 836 529 
Q 422 1150 422 2328 
Q 422 3509 836 4129 
Q 1250 4750 2034 4750 
z
" transform="scale(0.015625)"/>
      <path id="DejaVuSans-79" d="M 2059 -325 
Q 1816 -950 1584 -1140 
Q 1353 -1331 966 -1331 
L 506 -1331 
L 506 -850 
L 844 -850 
Q 1081 -850 1212 -737 
Q 1344 -625 1503 -206 
L 1606 56 
L 191 3500 
L 800 3500 
L 1894 763 
L 2988 3500 
L 3597 3500 
L 2059 -325 
z
" transform="scale(0.015625)"/>
     </defs>
     <use xlink:href="#DejaVuSans-33"/>
     <use xlink:href="#DejaVuSans-30" x="63.623047"/>
     <use xlink:href="#DejaVuSans-20" x="127.246094"/>
     <use xlink:href="#DejaVuSans-64" x="159.033203"/>
     <use xlink:href="#DejaVuSans-61" x="222.509766"/>
     <use xlink:href="#DejaVuSans-79" x="283.789062"/>
     <use xlink:href="#DejaVuSans-73" x="342.96875"/>
     <use xlink:href="#DejaVuSans-3f" x="395.068359"/>
    </g>
   </g>
   <g id="text_23">
    <!-- Downloaded at least -->
    <g style="fill: #1e3a5f" transform="translate(221.468594 622.144422) scale(0.09 -0.09)">
     <defs>
      <path id="DejaVuSans-44" d="M 1259 4147 
L 1259 519 
L 2022 519 
Q 2988 519 3436 956 
Q 3884 1394 3884 2338 
Q 3884 3275 3436 3711 
Q 2988 4147 2022 4147 
L 1259 4147 
z
M 628 4666 
L 1925 4666 
Q 3281 4666 3915 4102 
Q 4550 3538 4550 2338 
Q 4550 1131 3912 565 
Q 3275 0 1925 0 
L 628 0 
L 628 4666 
z
" transform="scale(0.015625)"/>
      <path id="DejaVuSans-77" d="M 269 3500 
L 844 3500 
L 1563 769 
L 2278 3500 
L 2956 3500 
L 3675 769 
L 4391 3500 
L 4966 3500 
L 4050 0 
L 3372 0 
L 2619 2869 
L 1863 0 
L 1184 0 
L 269 3500 
z
" transform="scale(0.015625)"/>
     </defs>
     <use xlink:href="#DejaVuSans-44"/>
     <use xlink:href="#DejaVuSans-6f" x="77.001953"/>
     <use xlink:href="#DejaVuSans-77" x="138.183594"/>
     <use xlink:href="#DejaVuSans-6e" x="219.970703"/>
     <use xlink:href="#DejaVuSans-6c" x="283.349609"/>
     <use xlink:href="#DejaVuSans-6f" x="311.132812"/>
     <use xlink:href="#DejaVuSans-61" x="372.314453"/>
     <use xlink:href="#DejaVuSans-64" x="433.59375"/>
     <use xlink:href="#DejaVuSans-65" x="497.070312"/>
     <use xlink:href="#DejaVuSans-64" x="558.59375"/>
     <use xlink:href="#DejaVuSans-20" x="622.070312"/>
     <use xlink:href="#DejaVuSans-61" x="653.857422"/>
     <use xlink:href="#DejaVuSans-74" x="715.136719"/>
     <use xlink:href="#DejaVuSans-20" x="754.345703"/>
     <use xlink:href="#DejaVuSans-6c" x="786.132812"/>
     <use xlink:href="#DejaVuSans-65" x="813.916016"/>
     <use xlink:href="#DejaVuSans-61" x="875.439453"/>
     <use xlink:href="#DejaVuSans-73" x="936.71875"/>
     <use xlink:href="#DejaVuSans-74" x="988.818359"/>
    </g>
    <!-- 1 song/sfx? -->
    <g style="fill: #1e3a5f" transform="translate(242.134141 632.222453) scale(0.09 -0.09)">
     <defs>
      <path id="DejaVuSans-31" d="M 794 531 
L 1825 531 
L 1825 4091 
L 703 3866 
L 703 4441 
L 1819 4666 
L 2450 4666 
L 2450 531 
L 3481 531 
L 3481 0 
L 794 0 
L 794 531 
z
" transform="scale(0.015625)"/>
      <path id="DejaVuSans-67" d="M 2906 1791 
Q 2906 2416 2648 2759 
Q 2391 3103 1925 3103 
Q 1463 3103 1205 2759 
Q 947 2416 947 1791 
Q 947 1169 1205 825 
Q 1463 481 1925 481 
Q 2391 481 2648 825 
Q 2906 1169 2906 1791 
z
M 3481 434 
Q 3481 -459 3084 -895 
Q 2688 -1331 1869 -1331 
Q 1566 -1331 1297 -1286 
Q 1028 -1241 775 -1147 
L 775 -588 
Q 1028 -725 1275 -790 
Q 1522 -856 1778 -856 
Q 2344 -856 2625 -561 
Q 2906 -266 2906 331 
L 2906 616 
Q 2728 306 2450 153 
Q 2172 0 1784 0 
Q 1141 0 747 490 
Q 353 981 353 1791 
Q 353 2603 747 3093 
Q 1141 3584 1784 3584 
Q 2172 3584 2450 3431 
Q 2728 3278 2906 2969 
L 2906 3500 
L 3481 3500 
L 3481 434 
z
" transform="scale(0.015625)"/>
      <path id="DejaVuSans-2f" d="M 1625 4666 
L 2156 4666 
L 531 -594 
L 0 -594 
L 1625 4666 
z
" transform="scale(0.015625)"/>
      <path id="DejaVuSans-66" d="M 2375 4863 
L 2375 4384 
L 1825 4384 
Q 1516 4384 1395 4259 
Q 1275 4134 1275 3809 
L 1275 3500 
L 2222 3500 
L 2222 3053 
L 1275 3053 
L 1275 0 
L 697 0 
L 697 3053 
L 147 3053 
L 147 3500 
L 697 3500 
L 697 3744 
Q 697 4328 969 4595 
Q 1241 4863 1831 4863 
L 2375 4863 
z
" transform="scale(0.015625)"/>
      <path id="DejaVuSans-78" d="M 3513 3500 
L 2247 1797 
L 3578 0 
L 2900 0 
L 1881 1375 
L 863 0 
L 184 0 
L 1544 1831 
L 300 3500 
L 978 3500 
L 1906 2253 
L 2834 3500 
L 3513 3500 
z
" transform="scale(0.015625)"/>
     </defs>
     <use xlink:href="#DejaVuSans-31"/>
     <use xlink:href="#DejaVuSans-20" x="63.623047"/>
     <use xlink:href="#DejaVuSans-73" x="95.410156"/>
     <use xlink:href="#DejaVuSans-6f" x="147.509766"/>
     <use xlink:href="#DejaVuSans-6e" x="208.691406"/>
     <use xlink:href="#DejaVuSans-67" x="272.070312"/>
     <use xlink:href="#DejaVuSans-2f" x="335.546875"/>
     <use xlink:href="#DejaVuSans-73" x="369.238281"/>
     <use xlink:href="#DejaVuSans-66" x="421.337891"/>
     <use xlink:href="#DejaVuSans-78" x="456.542969"/>
     <use xlink:href="#DejaVuSans-3f" x="515.722656"/>
    </g>
   </g>
   <g id="text_24">
    <!-- How long since -->
    <g style="fill: #1e3a5f" transform="translate(786.150234 622.144422) scale(0.09 -0.09)">
     <use xlink:href="#DejaVuSans-48"/>
     <use xlink:href="#DejaVuSans-6f" x="75.195312"/>
     <use xlink:href="#DejaVuSans-77" x="136.376953"/>
     <use xlink:href="#DejaVuSans-20" x="218.164062"/>
     <use xlink:href="#DejaVuSans-6c" x="249.951172"/>
     <use xlink:href="#DejaVuSans-6f" x="277.734375"/>
     <use xlink:href="#DejaVuSans-6e" x="338.916016"/>
     <use xlink:href="#DejaVuSans-67" x="402.294922"/>
     <use xlink:href="#DejaVuSans-20" x="465.771484"/>
     <use xlink:href="#DejaVuSans-73" x="497.558594"/>
     <use xlink:href="#DejaVuSans-69" x="549.658203"/>
     <use xlink:href="#DejaVuSans-6e" x="577.441406"/>
     <use xlink:href="#DejaVuSans-63" x="640.820312"/>
     <use xlink:href="#DejaVuSans-65" x="695.800781"/>
    </g>
    <!-- last session? -->
    <g style="fill: #1e3a5f" transform="translate(791.638125 632.222453) scale(0.09 -0.09)">
     <use xlink:href="#DejaVuSans-6c"/>
     <use xlink:href="#DejaVuSans-61" x="27.783203"/>
     <use xlink:href="#DejaVuSans-73" x="89.0625"/>
     <use xlink:href="#DejaVuSans-74" x="141.162109"/>
     <use xlink:href="#DejaVuSans-20" x="180.371094"/>
     <use xlink:href="#DejaVuSans-73" x="212.158203"/>
     <use xlink:href="#DejaVuSans-65" x="264.257812"/>
     <use xlink:href="#DejaVuSans-73" x="325.78125"/>
     <use xlink:href="#DejaVuSans-73" x="377.880859"/>
     <use xlink:href="#DejaVuSans-69" x="429.980469"/>
     <use xlink:href="#DejaVuSans-6f" x="457.763672"/>
     <use xlink:href="#DejaVuSans-6e" x="518.945312"/>
     <use xlink:href="#DejaVuSans-3f" x="582.324219"/>
    </g>
   </g>
   <g id="text_25">
    <!-- Active -->
    <g style="fill: #1f2937" transform="translate(24.400547 916.594422) scale(0.09 -0.09)">
     <use xlink:href="#DejaVuSans-Bold-41"/>
     <use xlink:href="#DejaVuSans-Bold-63" x="77.392578"/>
     <use xlink:href="#DejaVuSans-Bold-74" x="136.669922"/>
     <use xlink:href="#DejaVuSans-Bold-69" x="184.472656"/>
     <use xlink:href="#DejaVuSans-Bold-76" x="218.75"/>
     <use xlink:href="#DejaVuSans-Bold-65" x="283.935547"/>
    </g>
    <!-- Downloaders -->
    <g style="fill: #1f2937" transform="translate(7.2 926.672453) scale(0.09 -0.09)">
     <use xlink:href="#DejaVuSans-Bold-44"/>
     <use xlink:href="#DejaVuSans-Bold-6f" x="83.007812"/>
     <use xlink:href="#DejaVuSans-Bold-77" x="151.708984"/>
     <use xlink:href="#DejaVuSans-Bold-6e" x="244.091797"/>
     <use xlink:href="#DejaVuSans-Bold-6c" x="315.283203"/>
     <use xlink:href="#DejaVuSans-Bold-6f" x="349.560547"/>
     <use xlink:href="#DejaVuSans-Bold-61" x="418.261719"/>
     <use xlink:href="#DejaVuSans-Bold-64" x="485.742188"/>
     <use xlink:href="#DejaVuSans-Bold-65" x="557.324219"/>
     <use xlink:href="#DejaVuSans-Bold-72" x="625.146484"/>
     <use xlink:href="#DejaVuSans-Bold-73" x="674.462891"/>
    </g>
   </g>
   <g id="text_26">
    <!-- 2.2K (21%) -->
    <g style="fill: #2563eb" transform="translate(12.320859 964.923437) scale(0.09 -0.09)">
     <defs>
      <path id="DejaVuSans-Bold-32" d="M 1844 884 
L 3897 884 
L 3897 0 
L 506 0 
L 506 884 
L 2209 2388 
Q 2438 2594 2547 2791 
Q 2656 2988 2656 3200 
Q 2656 3528 2436 3728 
Q 2216 3928 1850 3928 
Q 1569 3928 1234 3808 
Q 900 3688 519 3450 
L 519 4475 
Q 925 4609 1322 4679 
Q 1719 4750 2100 4750 
Q 2938 4750 3402 4381 
Q 3866 4013 3866 3353 
Q 3866 2972 3669 2642 
Q 3472 2313 2841 1759 
L 1844 884 
z
" transform="scale(0.015625)"/>
      <path id="DejaVuSans-Bold-2e" d="M 653 1209 
L 1778 1209 
L 1778 0 
L 653 0 
L 653 1209 
z
" transform="scale(0.015625)"/>
     </defs>
     <use xlink:href="#DejaVuSans-Bold-32"/>
     <use xlink:href="#DejaVuSans-Bold-2e" x="69.580078"/>
     <use xlink:href="#DejaVuSans-Bold-32" x="107.568359"/>
     <use xlink:href="#DejaVuSans-Bold-4b" x="177.148438"/>
     <use xlink:href="#DejaVuSans-Bold-20" x="254.638672"/>
     <use xlink:href="#DejaVuSans-Bold-28" x="289.453125"/>
     <use xlink:href="#DejaVuSans-Bold-32" x="335.15625"/>
     <use xlink:href="#DejaVuSans-Bold-31" x="404.736328"/>
     <use xlink:href="#DejaVuSans-Bold-25" x="474.316406"/>
     <use xlink:href="#DejaVuSans-Bold-29" x="574.511719"/>
    </g>
   </g>
   <g id="text_27">
    <!-- Active -->
    <g style="fill: #1f2937" transform="translate(251.900547 916.594422) scale(0.09 -0.09)">
     <use xlink:href="#DejaVuSans-Bold-41"/>
     <use xlink:href="#DejaVuSans-Bold-63" x="77.392578"/>
     <use xlink:href="#DejaVuSans-Bold-74" x="136.669922"/>
     <use xlink:href="#DejaVuSans-Bold-69" x="184.472656"/>
     <use xlink:href="#DejaVuSans-Bold-76" x="218.75"/>
     <use xlink:href="#DejaVuSans-Bold-65" x="283.935547"/>
    </g>
    <!-- Browsers -->
    <g style="fill: #1f2937" transform="translate(244.204141 926.672453) scale(0.09 -0.09)">
     <defs>
      <path id="DejaVuSans-Bold-42" d="M 2456 2859 
Q 2741 2859 2887 2984 
Q 3034 3109 3034 3353 
Q 3034 3594 2887 3720 
Q 2741 3847 2456 3847 
L 1791 3847 
L 1791 2859 
L 2456 2859 
z
M 2497 819 
Q 2859 819 3042 972 
Q 3225 1125 3225 1434 
Q 3225 1738 3044 1889 
Q 2863 2041 2497 2041 
L 1791 2041 
L 1791 819 
L 2497 819 
z
M 3616 2497 
Q 4003 2384 4215 2081 
Q 4428 1778 4428 1338 
Q 4428 663 3972 331 
Q 3516 0 2584 0 
L 588 0 
L 588 4666 
L 2394 4666 
Q 3366 4666 3802 4372 
Q 4238 4078 4238 3431 
Q 4238 3091 4078 2852 
Q 3919 2613 3616 2497 
z
" transform="scale(0.015625)"/>
     </defs>
     <use xlink:href="#DejaVuSans-Bold-42"/>
     <use xlink:href="#DejaVuSans-Bold-72" x="76.220703"/>
     <use xlink:href="#DejaVuSans-Bold-6f" x="125.537109"/>
     <use xlink:href="#DejaVuSans-Bold-77" x="194.238281"/>
     <use xlink:href="#DejaVuSans-Bold-73" x="286.621094"/>
     <use xlink:href="#DejaVuSans-Bold-65" x="346.142578"/>
     <use xlink:href="#DejaVuSans-Bold-72" x="413.964844"/>
     <use xlink:href="#DejaVuSans-Bold-73" x="463.28125"/>
    </g>
   </g>
   <g id="text_28">
    <!-- 832 (8%) -->
    <g style="fill: #7c3aed" transform="translate(245.016953 964.923437) scale(0.09 -0.09)">
     <use xlink:href="#DejaVuSans-Bold-38"/>
     <use xlink:href="#DejaVuSans-Bold-33" x="69.580078"/>
     <use xlink:href="#DejaVuSans-Bold-32" x="139.160156"/>
     <use xlink:href="#DejaVuSans-Bold-20" x="208.740234"/>
     <use xlink:href="#DejaVuSans-Bold-28" x="243.554688"/>
     <use xlink:href="#DejaVuSans-Bold-38" x="289.257812"/>
     <use xlink:href="#DejaVuSans-Bold-25" x="358.837891"/>
     <use xlink:href="#DejaVuSans-Bold-29" x="459.033203"/>
    </g>
   </g>
   <g id="text_29">
    <!-- Early Lapse -->
    <g style="fill: #1f2937" transform="translate(563.501797 921.598281) scale(0.09 -0.09)">
     <defs>
      <path id="DejaVuSans-Bold-70" d="M 1656 506 
L 1656 -1331 
L 538 -1331 
L 538 3500 
L 1656 3500 
L 1656 2988 
Q 1888 3294 2169 3439 
Q 2450 3584 2816 3584 
Q 3463 3584 3878 3070 
Q 4294 2556 4294 1747 
Q 4294 938 3878 423 
Q 3463 -91 2816 -91 
Q 2450 -91 2169 54 
Q 1888 200 1656 506 
z
M 2400 2772 
Q 2041 2772 1848 2508 
Q 1656 2244 1656 1747 
Q 1656 1250 1848 986 
Q 2041 722 2400 722 
Q 2759 722 2948 984 
Q 3138 1247 3138 1747 
Q 3138 2247 2948 2509 
Q 2759 2772 2400 2772 
z
" transform="scale(0.015625)"/>
     </defs>
     <use xlink:href="#DejaVuSans-Bold-45"/>
     <use xlink:href="#DejaVuSans-Bold-61" x="68.310547"/>
     <use xlink:href="#DejaVuSans-Bold-72" x="135.791016"/>
     <use xlink:href="#DejaVuSans-Bold-6c" x="185.107422"/>
     <use xlink:href="#DejaVuSans-Bold-79" x="219.384766"/>
     <use xlink:href="#DejaVuSans-Bold-20" x="284.570312"/>
     <use xlink:href="#DejaVuSans-Bold-4c" x="319.384766"/>
     <use xlink:href="#DejaVuSans-Bold-61" x="383.105469"/>
     <use xlink:href="#DejaVuSans-Bold-70" x="450.585938"/>
     <use xlink:href="#DejaVuSans-Bold-73" x="522.167969"/>
     <use xlink:href="#DejaVuSans-Bold-65" x="581.689453"/>
    </g>
   </g>
   <g id="text_30">
    <!-- 2.7K (26%) -->
    <g style="fill: #d97706" transform="translate(564.820859 964.923437) scale(0.09 -0.09)">
     <defs>
      <path id="DejaVuSans-Bold-37" d="M 428 4666 
L 3944 4666 
L 3944 3988 
L 2125 0 
L 953 0 
L 2675 3781 
L 428 3781 
L 428 4666 
z
" transform="scale(0.015625)"/>
      <path id="DejaVuSans-Bold-36" d="M 2316 2303 
Q 2000 2303 1842 2098 
Q 1684 1894 1684 1484 
Q 1684 1075 1842 870 
Q 2000 666 2316 666 
Q 2634 666 2792 870 
Q 2950 1075 2950 1484 
Q 2950 1894 2792 2098 
Q 2634 2303 2316 2303 
z
M 3803 4544 
L 3803 3681 
Q 3506 3822 3243 3889 
Q 2981 3956 2731 3956 
Q 2194 3956 1894 3657 
Q 1594 3359 1544 2772 
Q 1750 2925 1990 3001 
Q 2231 3078 2516 3078 
Q 3231 3078 3670 2659 
Q 4109 2241 4109 1563 
Q 4109 813 3618 361 
Q 3128 -91 2303 -91 
Q 1394 -91 895 523 
Q 397 1138 397 2266 
Q 397 3422 980 4083 
Q 1563 4744 2578 4744 
Q 2900 4744 3203 4694 
Q 3506 4644 3803 4544 
z
" transform="scale(0.015625)"/>
     </defs>
     <use xlink:href="#DejaVuSans-Bold-32"/>
     <use xlink:href="#DejaVuSans-Bold-2e" x="69.580078"/>
     <use xlink:href="#DejaVuSans-Bold-37" x="107.568359"/>
     <use xlink:href="#DejaVuSans-Bold-4b" x="177.148438"/>
     <use xlink:href="#DejaVuSans-Bold-20" x="254.638672"/>
     <use xlink:href="#DejaVuSans-Bold-28" x="289.453125"/>
     <use xlink:href="#DejaVuSans-Bold-32" x="335.15625"/>
     <use xlink:href="#DejaVuSans-Bold-36" x="404.736328"/>
     <use xlink:href="#DejaVuSans-Bold-25" x="474.316406"/>
     <use xlink:href="#DejaVuSans-Bold-29" x="574.511719"/>
    </g>
   </g>
   <g id="text_31">
    <!-- Deep Lapse -->
    <g style="fill: #1f2937" transform="translate(790.746562 921.633437) scale(0.09 -0.09)">
     <use xlink:href="#DejaVuSans-Bold-44"/>
     <use xlink:href="#DejaVuSans-Bold-65" x="83.007812"/>
     <use xlink:href="#DejaVuSans-Bold-65" x="150.830078"/>
     <use xlink:href="#DejaVuSans-Bold-70" x="218.652344"/>
     <use xlink:href="#DejaVuSans-Bold-20" x="290.234375"/>
     <use xlink:href="#DejaVuSans-Bold-4c" x="325.048828"/>
     <use xlink:href="#DejaVuSans-Bold-61" x="388.769531"/>
     <use xlink:href="#DejaVuSans-Bold-70" x="456.25"/>
     <use xlink:href="#DejaVuSans-Bold-73" x="527.832031"/>
     <use xlink:href="#DejaVuSans-Bold-65" x="587.353516"/>
    </g>
   </g>
   <g id="text_32">
    <!-- 1.3K (12%) -->
    <g style="fill: #ea580c" transform="translate(792.320859 964.923437) scale(0.09 -0.09)">
     <use xlink:href="#DejaVuSans-Bold-31"/>
     <use xlink:href="#DejaVuSans-Bold-2e" x="69.580078"/>
     <use xlink:href="#DejaVuSans-Bold-33" x="107.568359"/>
     <use xlink:href="#DejaVuSans-Bold-4b" x="177.148438"/>
     <use xlink:href="#DejaVuSans-Bold-20" x="254.638672"/>
     <use xlink:href="#DejaVuSans-Bold-28" x="289.453125"/>
     <use xlink:href="#DejaVuSans-Bold-31" x="335.15625"/>
     <use xlink:href="#DejaVuSans-Bold-32" x="404.736328"/>
     <use xlink:href="#DejaVuSans-Bold-25" x="474.316406"/>
     <use xlink:href="#DejaVuSans-Bold-29" x="574.511719"/>
    </g>
   </g>
   <g id="text_33">
    <!-- Dormant -->
    <g style="fill: #1f2937" transform="translate(1025.603359 921.633437) scale(0.09 -0.09)">
     <use xlink:href="#DejaVuSans-Bold-44"/>
     <use xlink:href="#DejaVuSans-Bold-6f" x="83.007812"/>
     <use xlink:href="#DejaVuSans-Bold-72" x="151.708984"/>
     <use xlink:href="#DejaVuSans-Bold-6d" x="201.025391"/>
     <use xlink:href="#DejaVuSans-Bold-61" x="305.224609"/>
     <use xlink:href="#DejaVuSans-Bold-6e" x="372.705078"/>
     <use xlink:href="#DejaVuSans-Bold-74" x="443.896484"/>
    </g>
   </g>
   <g id="text_34">
    <!-- 3.4K (33%) -->
    <g style="fill: #dc2626" transform="translate(1019.820859 964.923437) scale(0.09 -0.09)">
     <defs>
      <path id="DejaVuSans-Bold-34" d="M 2356 3675 
L 1038 1722 
L 2356 1722 
L 2356 3675 
z
M 2156 4666 
L 3494 4666 
L 3494 1722 
L 4159 1722 
L 4159 850 
L 3494 850 
L 3494 0 
L 2356 0 
L 2356 850 
L 288 850 
L 288 1881 
L 2156 4666 
z
" transform="scale(0.015625)"/>
     </defs>
     <use xlink:href="#DejaVuSans-Bold-33"/>
     <use xlink:href="#DejaVuSans-Bold-2e" x="69.580078"/>
     <use xlink:href="#DejaVuSans-Bold-34" x="107.568359"/>
     <use xlink:href="#DejaVuSans-Bold-4b" x="177.148438"/>
     <use xlink:href="#DejaVuSans-Bold-20" x="254.638672"/>
     <use xlink:href="#DejaVuSans-Bold-28" x="289.453125"/>
     <use xlink:href="#DejaVuSans-Bold-33" x="335.15625"/>
     <use xlink:href="#DejaVuSans-Bold-33" x="404.736328"/>
     <use xlink:href="#DejaVuSans-Bold-25" x="474.316406"/>
     <use xlink:href="#DejaVuSans-Bold-29" x="574.511719"/>
    </g>
   </g>
  </g>
 </g>
 <defs>
  <clipPath id="p7eff8499fd">
   <rect x="7.73" y="7.2" width="1040" height="1430"/>
  </clipPath>
 </defs>
</svg>
